<svg xmlns="http://www.w3.org/2000/svg" width="12.753" height="21.246" viewBox="0 0 12.753 21.246"><path d="M7.137-11.648A6.338,6.338,0,0,1,11.631-10.1a5.285,5.285,0,0,1,1.634,4.115,5.484,5.484,0,0,1-1.109,3.414A30.445,30.445,0,0,1,9.792-.325,5.648,5.648,0,0,0,8.421,1.28a4.093,4.093,0,0,0-.554,2.13v.671H5.532V3.411A5.744,5.744,0,0,1,6.057.872,12.242,12.242,0,0,1,9-2.514,14.411,14.411,0,0,0,10-3.564a3.678,3.678,0,0,0,.876-2.306A3.667,3.667,0,0,0,9.88-8.584,3.806,3.806,0,0,0,7.02-9.605a3.754,3.754,0,0,0-3.239,1.43,5.3,5.3,0,0,0-.963,3.356H.512a6.819,6.819,0,0,1,1.722-4.9A6.29,6.29,0,0,1,7.137-11.648ZM6.7,6.125a1.737,1.737,0,0,1,1.284.5,1.665,1.665,0,0,1,.5,1.226A1.652,1.652,0,0,1,7.954,9.1a1.835,1.835,0,0,1-2.51,0,1.7,1.7,0,0,1-.5-1.255,1.605,1.605,0,0,1,.5-1.226A1.7,1.7,0,0,1,6.7,6.125Z" transform="translate(-0.512 11.648)"/></svg>