<svg xmlns="http://www.w3.org/2000/svg" width="46" height="46" viewBox="0 0 46 46"><defs><style>.a{fill:#9fa6b4;}</style></defs><g transform="translate(-64 -82)"><path class="a" d="M9.049,13.272,0,4.223,4.223,0l9.35,9.35V4.223h6.033V19.3H4.524V13.272Z" transform="translate(110 127.951) rotate(180)"/><path class="a" d="M9.049,13.272,0,4.223,4.223,0l9.35,9.35V4.223h6.033V19.3H4.524V13.272Z" transform="translate(110 82) rotate(90)"/><path class="a" d="M9.049,13.272,0,4.223,4.223,0l9.35,9.35V4.223h6.033V19.3H4.524V13.272Z" transform="translate(64 82)"/><path class="a" d="M9.049,13.272,0,4.223,4.223,0l9.35,9.35V4.223h6.033V19.3H4.524V13.272Z" transform="translate(64 128) rotate(-90)"/></g></svg>