<svg xmlns="http://www.w3.org/2000/svg" width="32.69" height="16" viewBox="0 0 32.69 16"><defs><style>.a{fill:#4a5cd5;}</style></defs><path class="a" d="M14.059-2.182A12.126,12.126,0,0,1,12.005.649L11.09-.024a10.9,10.9,0,0,0,1.881-2.693ZM8.173-2.3A17.014,17.014,0,0,1,9.036-.18L7.932.1A14.747,14.747,0,0,0,7.1-1.957Zm-4.419.224A16.6,16.6,0,0,1,4.98.459L3.927.942a17.448,17.448,0,0,0-1.26-2.675ZM14.594-3.614A68.149,68.149,0,0,1,2.132-2.7l-.4-1.139a79.641,79.641,0,0,0,12.272-.794ZM.769-7.066H4.7V-8.1H5.981v1.036h4.591V-8.119h1.208v1.053H15.7v1.139H11.781v.949H10.573v-.949H5.981V-4.84H4.7V-5.927H.769ZM1.028,1.65H7.656V.58H8.864V1.65h6.628V2.806h-5.4a15.849,15.849,0,0,0,5.972,3.487L15.216,7.38A16,16,0,0,1,8.985,2.806H8.864v4.85H7.656V2.806H7.535A13.929,13.929,0,0,1,1.2,7.363L.51,6.224A14.125,14.125,0,0,0,6.43,2.806h-5.4ZM19.755-5.427h3.3a17.163,17.163,0,0,0-1.622-2.227l1.087-.518a20.835,20.835,0,0,1,1.64,2.33l-.794.414h3.573A17.143,17.143,0,0,0,28.3-8.24l1.191.432A14.447,14.447,0,0,1,28.2-5.427H31.3v7.18H26.158V3.324H33.2V4.515H26.158V7.76H24.9V4.515H17.839V3.324H24.9V1.754H19.755ZM30.059.649V-1.284h-3.9V.649ZM24.9.649V-1.284H20.98V.649ZM20.98-2.372H24.9V-4.287H20.98Zm5.178-1.916v1.916h3.9V-4.287Z" transform="translate(-0.51 8.24)"/></svg>