<svg xmlns="http://www.w3.org/2000/svg" width="32.657" height="15.64" viewBox="0 0 32.657 15.64"><path d="M7.089-9.69h7.956v5.27H11.577q-.068.867-.136,1.309h4.777v1.122H11.9A10.2,10.2,0,0,0,16.3.782l-.833.969a10.289,10.289,0,0,1-4.5-3.281.666.666,0,0,0-.068.153Q9.979.51,6.715,1.734L5.933.782A7.107,7.107,0,0,0,9.775-1.7l.136-.289H5.831V-3.111h4.488a6.934,6.934,0,0,0,.187-1.309H7.089ZM13.94-5.372V-6.6H8.194v1.224ZM8.194-7.514H13.94V-8.721H8.194ZM6-12.444H8.517v-1.411H9.673v1.411h2.618v-1.411h1.156v1.411h2.635v1.088H13.447v1.19H12.291v-1.19H9.673v1.19H8.517v-1.19H6ZM4.284,1.649H3.128V-6.885A19.538,19.538,0,0,1,1.105-2.448L.578-3.774A15.993,15.993,0,0,0,3.111-9.418H.986v-1.105H3.128v-3.366H4.284v3.366H5.95v1.105H4.284v1.173q1,1.275,2.023,2.839l-.646.952Q4.93-5.865,4.284-6.936Zm14.008-.187L18.054.306a11.338,11.338,0,0,0,1.292.085.579.579,0,0,0,.646-.663V-4.386q-.9.34-1.921.663l-.289-1.156a22.094,22.094,0,0,0,2.21-.663V-9.588H17.918v-1.173h2.074v-3.111h1.19v3.111h1.785v1.173H21.182v3.57q.884-.391,1.819-.9v1.19q-.833.425-1.819.867v4.9a1.255,1.255,0,0,1-1.411,1.428ZM31.705-13.617a36.77,36.77,0,0,1-.765,8.126,11.741,11.741,0,0,1-.425,1.479A41.364,41.364,0,0,1,33.235.782l-.969.68a38.436,38.436,0,0,0-2.261-4.25,12.638,12.638,0,0,1-3.638,4.454L25.619.731a11.691,11.691,0,0,0,4.114-6.256,35.128,35.128,0,0,0,.782-8.092ZM23.273-1.972q.595-.255.595-.731V-12.92h1.156V-2.567a20.991,20.991,0,0,0,2.363-1.105l.306,1.105a28.382,28.382,0,0,1-4.046,1.7ZM27.047-11.8a25.778,25.778,0,0,1,2.074,4.284l-1.02.476a32.332,32.332,0,0,0-2.091-4.42Z" transform="translate(-0.578 13.889)"/></svg>