<svg xmlns="http://www.w3.org/2000/svg" xmlns:xlink="http://www.w3.org/1999/xlink" width="42" height="42" viewBox="0 0 42 42"><defs><style>.a{fill:none;}.b{fill:#78a9ff;}.c{clip-path:url(#a);}.d{fill:#fff;}</style><clipPath id="a"><rect class="a" width="20" height="20"/></clipPath></defs><g transform="translate(51.449 -39)"><g transform="translate(-51.449 39)"><path class="b" d="M21,0A21,21,0,1,1,0,21,21,21,0,0,1,21,0Z" transform="translate(0 0)"/><g class="c" transform="translate(11 11)"><path class="d" d="M-27.582,56.761a1.144,1.144,0,0,1-1.144-1.142,1.144,1.144,0,0,1,1.144-1.142,1.144,1.144,0,0,1,1.144,1.142,1.144,1.144,0,0,1-1.144,1.142Zm-1.168,7.679a.757.757,0,0,1-.758.757h-9.247a.757.757,0,0,1-.758-.757V58.308h10.763ZM-39.519,49.051a.757.757,0,0,1,.758-.757h7.509s-.178,1.525.267,2.082,2.2.4,2.2.4v2.1H-39.519Zm13.6,3.823H-27.2V49.95s.013-.087-.132-.365a16.125,16.125,0,0,0-2.5-2.625.567.567,0,0,0-.337-.171h-9.111a1.776,1.776,0,0,0-1.777,1.774v4.31h-1.291a1.776,1.776,0,0,0-1.777,1.774v5.7a1.776,1.776,0,0,0,1.777,1.774h1.291v2.841a1.776,1.776,0,0,0,1.777,1.774h10.3A1.776,1.776,0,0,0-27.2,64.965V62.126h1.277a1.776,1.776,0,0,0,1.777-1.774v-5.7a1.776,1.776,0,0,0-1.777-1.774Zm-12.059,9.253h5.391v1.536h-5.391Zm0-2.293h7.687v1.536h-7.687Zm0,0" transform="translate(44.117 -46.766)"/></g></g></g></svg>