<svg xmlns="http://www.w3.org/2000/svg" xmlns:xlink="http://www.w3.org/1999/xlink" width="23.625" height="24.422" viewBox="0 0 23.625 24.422"><defs><style>.a{fill:none;}.b{clip-path:url(#a);}.c{fill:#fff;}</style><clipPath id="a"><rect class="a" width="23.625" height="24.422"/></clipPath></defs><g class="b" transform="translate(0 0)"><path class="c" d="M238,891.682h2.832v6.4H238Zm4.478-.853s9.856-.36,15.025-6.517c0,0,4.422-1.056,4.084,10.538,0,0,.47,7.984-4.043,9.108,0,0-3.388-4.394-15.064-4.928Zm1.835,10.136a16.917,16.917,0,0,0,3.463,7.695s2.649.118,3.048-.976a1.694,1.694,0,0,0-.562-1.658c-.271-.429-2.671-2.457-3.063-5.061Zm0,0" transform="translate(-238 -884.277)"/></g></svg>