<svg xmlns="http://www.w3.org/2000/svg" width="31.135" height="18" viewBox="0 0 31.135 18"><path d="M-74.931,159.16h-27.243a1.946,1.946,0,0,0-1.946,1.946v14.108a1.948,1.948,0,0,0,1.946,1.946h27.243a1.948,1.948,0,0,0,1.946-1.946V161.106a1.946,1.946,0,0,0-1.946-1.946Zm-25.054,7.784h1.459a.244.244,0,0,1,.243.243v1.46a.244.244,0,0,1-.243.243h-1.459a.244.244,0,0,1-.243-.243v-1.46a.244.244,0,0,1,.243-.243Zm-.243-1.7v-1.459a.244.244,0,0,1,.243-.243h2.432a.244.244,0,0,1,.243.243v1.459a.244.244,0,0,1-.243.243h-2.432a.244.244,0,0,1-.243-.243Zm.243,5.595h1.459a.244.244,0,0,1,.243.243v1.459a.244.244,0,0,1-.243.243h-1.459a.244.244,0,0,1-.243-.243v-1.459a.244.244,0,0,1,.243-.243Zm5.351-3.892a.244.244,0,0,1,.243.243v1.46a.244.244,0,0,1-.243.243h-1.46a.244.244,0,0,1-.243-.243v-1.46a.244.244,0,0,1,.243-.243Zm-1.216-1.7v-1.459a.244.244,0,0,1,.243-.243h2.432a.244.244,0,0,1,.243.243v1.459a.244.244,0,0,1-.243.243h-2.432a.244.244,0,0,1-.243-.243Zm-.243,5.595H-84.9a.244.244,0,0,1,.243.243v1.459a.244.244,0,0,1-.243.243H-96.093a.244.244,0,0,1-.243-.243v-1.459a.244.244,0,0,1,.243-.243Zm13.622,0h1.459a.244.244,0,0,1,.243.243v1.459a.244.244,0,0,1-.243.243h-1.459a.244.244,0,0,1-.243-.243v-1.459a.244.244,0,0,1,.243-.243Zm-.243-5.595v-1.459a.244.244,0,0,1,.243-.243h2.432a.244.244,0,0,1,.243.243v1.459a.244.244,0,0,1-.243.243h-2.432a.244.244,0,0,1-.243-.243Zm0,3.405a.244.244,0,0,1-.243.243h-1.46a.244.244,0,0,1-.243-.243v-1.46a.244.244,0,0,1,.243-.243h1.46a.244.244,0,0,1,.243.243Zm-1.459-3.405a.244.244,0,0,1-.243.243H-86.85a.244.244,0,0,1-.243-.243v-1.459a.244.244,0,0,1,.243-.243h2.432a.244.244,0,0,1,.243.243Zm-2.676,1.7a.244.244,0,0,1,.243.243v1.46a.244.244,0,0,1-.243.243h-1.459a.244.244,0,0,1-.243-.243v-1.46a.244.244,0,0,1,.243-.243Zm-1.7-1.7a.244.244,0,0,1-.243.243h-2.432a.244.244,0,0,1-.243-.243v-1.459a.244.244,0,0,1,.243-.243H-88.8a.244.244,0,0,1,.243.243Zm-2.189,1.7a.244.244,0,0,1,.243.243v1.46a.244.244,0,0,1-.243.243H-92.2a.244.244,0,0,1-.243-.243v-1.46a.244.244,0,0,1,.243-.243Zm11.919,5.595v-1.459a.244.244,0,0,1,.243-.243h1.459a.244.244,0,0,1,.243.243v1.459a.244.244,0,0,1-.243.243H-78.58a.244.244,0,0,1-.243-.243Zm1.946-4.622a.972.972,0,0,1-.973.973h-3.162a.244.244,0,0,1-.243-.243v-1.46a.244.244,0,0,1,.243-.243h1.946a.244.244,0,0,0,.243-.243v-2.919a.244.244,0,0,1,.243-.243h1.459a.244.244,0,0,1,.243.243Zm0,0" transform="translate(104.12 -159.16)"/></svg>