<svg xmlns="http://www.w3.org/2000/svg" xmlns:xlink="http://www.w3.org/1999/xlink" width="357.277" height="359.032" viewBox="0 0 357.277 359.032"><defs><style>.a{fill:none;}.b{opacity:0.66;}.c{fill:#cad7ff;}.d{fill:#8ca9ff;opacity:0.502;}.e{fill:url(#a);}.f{fill:#5586ff;}.g{fill:url(#b);}.h{fill:url(#c);}.i{fill:url(#d);}.j{fill:url(#e);}.k{fill:url(#f);}.l{opacity:0.702;}.l,.n{clip-path:url(#g);}.m{fill:#fff;}.o{fill:#def1ff;}.p{fill:#c2deff;opacity:0.6;}.q{fill:#bedcff;}.r{fill:url(#i);}.s{fill:url(#j);}.t{opacity:0.37;fill:url(#k);}.u{fill:#b7ddf8;}.v{fill:#c9e4f7;}</style><linearGradient id="a" x1="0.227" y1="-0.25" x2="0.773" y2="1.25" gradientUnits="objectBoundingBox"><stop offset="0" stop-color="#72d0fb"/><stop offset="0.36" stop-color="#72d0fb"/><stop offset="0.591" stop-color="#4a40ff"/><stop offset="1" stop-color="#4a40ff"/></linearGradient><linearGradient id="b" x1="0.161" x2="0.839" xlink:href="#a"/><linearGradient id="c" x1="-0.25" y1="0.81" x2="1.25" y2="0.19" gradientUnits="objectBoundingBox"><stop offset="0" stop-color="#5fffe8"/><stop offset="0.088" stop-color="#5fffe8"/><stop offset="0.461" stop-color="#3a85ff"/><stop offset="0.798" stop-color="#511cff"/><stop offset="1" stop-color="#511cff"/></linearGradient><linearGradient id="d" x1="-0.25" y1="0.704" x2="1.25" y2="0.296" gradientUnits="objectBoundingBox"><stop offset="0" stop-color="#5fffe8"/><stop offset="0.088" stop-color="#5fffe8"/><stop offset="0.458" stop-color="#b8fff5"/><stop offset="1" stop-color="#91f7e9"/></linearGradient><linearGradient id="e" x1="-0.25" y1="0.704" x2="1.25" y2="0.296" gradientUnits="objectBoundingBox"><stop offset="0" stop-color="#3a8afe"/><stop offset="0.088" stop-color="#3a8afe"/><stop offset="0.458" stop-color="#89b7ff"/><stop offset="1" stop-color="#3a7bff"/></linearGradient><linearGradient id="f" x1="-0.25" y1="0.703" x2="1.25" y2="0.297" gradientUnits="objectBoundingBox"><stop offset="0" stop-color="#4a40ff"/><stop offset="0.088" stop-color="#4a40ff"/><stop offset="0.63" stop-color="#488eff"/><stop offset="1" stop-color="#488eff"/></linearGradient><clipPath id="g"><rect class="a" width="217.956" height="143.377"/></clipPath><linearGradient id="i" x1="1.008" y1="1.25" x2="-0.008" y2="-0.25" gradientUnits="objectBoundingBox"><stop offset="0" stop-color="#a7ccff"/><stop offset="0.363" stop-color="#a7ccff"/><stop offset="0.58" stop-color="#75affc"/><stop offset="1" stop-color="#75affc"/></linearGradient><linearGradient id="j" x1="0.076" y1="-0.25" x2="0.924" y2="1.25" gradientUnits="objectBoundingBox"><stop offset="0" stop-color="#abd6ff"/><stop offset="0.363" stop-color="#abd6ff"/><stop offset="0.58" stop-color="#78b4fa"/><stop offset="1" stop-color="#78b4fa"/></linearGradient><linearGradient id="k" x1="0.848" y1="1.25" x2="0.152" y2="-0.25" gradientUnits="objectBoundingBox"><stop offset="0" stop-color="#71adff"/><stop offset="0.181" stop-color="#71adff"/><stop offset="0.228" stop-color="#71adff"/><stop offset="0.337" stop-color="#fff"/><stop offset="0.492" stop-color="#78b4fa"/><stop offset="0.65" stop-color="#fff"/><stop offset="0.772" stop-color="#78b4fa"/><stop offset="1" stop-color="#78b4fa"/></linearGradient></defs><g class="b" transform="translate(-353.001 -667.984)"><path class="c" d="M506.338,986.758l153.337,87.37L506.338,1161.5,353,1074.127Z" transform="translate(0 -134.48)"/><path class="d" d="M506.338,951.966l153.337,87.37L506.338,1126.7,353,1039.336Z" transform="translate(0 -119.802)"/><path class="e" d="M786.5,803.049l81.618-46.159s7.832-4.534,14.015,1.648c0,0,13.191,11.952,10.717,23.08,0,0,0,4.946-7.42,9.891l-79.144,46.984Z" transform="translate(-182.877 -36.83)"/><path class="f" d="M784.171,835.644c6.445-4.578,15.126-.4,21.563,8.759s5.3,19.842,1.746,24.42c-4.852,6.241-16.887.862-23.323-8.3S777.727,840.222,784.171,835.644Z" transform="translate(-179.856 -69.942)"/><path class="g" d="M756.551,860.468l23.083-14.013s16.626,1.786,14.015,23.08l-24.733,13.188Z" transform="translate(-170.244 -75.291)"/><path class="h" d="M637.661,992.237c-.022.337-.06.672-.089,1.009s-.053.668-.088,1c-.054.519-.122,1.036-.191,1.552-.039.293-.073.588-.117.88-.093.614-.2,1.225-.317,1.835-.036.191-.064.382-.1.572q-.487,2.449-1.2,4.849c-.032.107-.069.213-.1.32-.209.687-.428,1.372-.664,2.053-.057.166-.121.33-.18.5-.222.624-.452,1.245-.7,1.862-.071.178-.146.355-.219.533-.247.607-.5,1.212-.772,1.813-.076.171-.156.341-.234.511q-.422.918-.874,1.827-.112.225-.227.448-.485.951-1.005,1.891c-.064.115-.127.23-.192.345q-.57,1.014-1.181,2.015c-.037.061-.074.124-.112.185a71.69,71.69,0,0,1-6.339,8.741c-.946,1.119-1.947,2.216-2.972,3.3-.074.078-.149.155-.223.233q-1.468,1.542-3.039,3.037l-.1.1a101.41,101.41,0,0,1-15.18,11.79,132.678,132.678,0,0,1-25.68,12.579c-.19.069-.385.133-.576.2-.331.12-.668.233-1,.351q-1.674.594-3.377,1.159c-.42.138-.846.271-1.269.406q-1.6.512-3.228,1c-.461.137-.925.27-1.389.4q-1.607.46-3.237.891-.708.187-1.42.369-1.667.425-3.357.816c-.454.106-.906.213-1.362.316q-1.8.4-3.634.77c-.385.077-.768.16-1.155.235q-2.141.416-4.315.782c-.182.031-.362.066-.545.1-1.679.278-3.37.539-5.076.771l-.3.038c-.54.072-1.083.139-1.625.207-.471.059-.94.12-1.413.176-.549.065-1.1.122-1.653.182-.47.051-.939.1-1.411.152-.56.056-1.124.106-1.686.157-.467.043-.934.088-1.4.128-.575.048-1.153.089-1.729.131-.461.034-.921.072-1.384.1-.6.04-1.194.071-1.791.105-.448.026-.9.055-1.345.078-.629.031-1.262.055-1.894.08-.422.017-.842.038-1.265.052-.7.024-1.411.038-2.118.054-.354.008-.707.02-1.062.026q-1.595.027-3.2.027c-67.619,0-122.426-35.573-122.426-79.454V963.915c0,43.881,54.808,79.454,122.426,79.454q1.605,0,3.2-.027c.355-.006.708-.018,1.062-.026.707-.016,1.414-.03,2.118-.054.423-.014.843-.035,1.265-.052.632-.025,1.264-.048,1.894-.08.45-.023.9-.052,1.345-.078.6-.034,1.2-.066,1.792-.106.463-.031.922-.068,1.384-.1.577-.043,1.155-.084,1.73-.132.469-.039.935-.085,1.4-.127.563-.052,1.126-.1,1.686-.157.472-.047.941-.1,1.411-.152.551-.06,1.1-.118,1.653-.182.473-.056.942-.117,1.413-.176.542-.068,1.085-.135,1.625-.207q2.594-.349,5.147-.769c.092-.015.182-.033.274-.048q2.309-.383,4.581-.822c.425-.082.844-.173,1.268-.259,1.177-.237,2.351-.479,3.512-.738.515-.115,1.025-.237,1.536-.356,1.062-.247,2.12-.5,3.168-.765.542-.137,1.081-.279,1.62-.422q1.516-.4,3.012-.825.81-.231,1.615-.468,1.488-.44,2.954-.907c.515-.163,1.031-.326,1.543-.494,1.008-.331,2-.675,3-1.023.46-.162.924-.32,1.381-.485a142.5,142.5,0,0,0,13.447-5.651l.019-.009q1.562-.755,3.084-1.542l.1-.052q1.479-.765,2.919-1.56l.186-.1q1.4-.771,2.754-1.571l.266-.154q1.314-.776,2.59-1.578c.114-.071.229-.14.342-.212q2.14-1.349,4.177-2.765l.055-.039c1.244-.865,2.452-1.752,3.636-2.653q.3-.226.593-.454,1.7-1.316,3.324-2.677c.063-.053.128-.1.19-.157q1.759-1.491,3.409-3.036c.1-.091.19-.185.287-.276q1.424-1.345,2.761-2.731.308-.318.612-.638,1.326-1.4,2.568-2.835c.083-.1.171-.19.253-.287a73.535,73.535,0,0,0,5.019-6.581l0-.005q.726-1.075,1.4-2.167c.076-.122.148-.245.222-.366q.56-.915,1.088-1.84c.1-.182.2-.364.3-.547q.468-.843.909-1.694.168-.325.33-.652.405-.809.785-1.626c.11-.238.22-.475.327-.714.239-.532.467-1.067.689-1.6.1-.247.206-.495.3-.743.215-.54.417-1.082.614-1.626.089-.245.181-.489.266-.734.2-.571.382-1.146.561-1.722.068-.219.142-.436.207-.655.2-.682.39-1.369.566-2.057.029-.113.063-.226.092-.339q.3-1.217.549-2.446c.026-.132.046-.264.071-.4.129-.673.25-1.348.353-2.027.043-.281.074-.564.113-.846.072-.533.143-1.066.2-1.6.034-.327.058-.656.086-.985.048-.56.081-1.122.113-1.684.049-.924.09-1.849.09-2.781v24.907Q637.772,990.538,637.661,992.237Z" transform="translate(-16.84 -124.843)"/><ellipse class="i" cx="122.426" cy="79.453" rx="122.426" ry="79.453" transform="translate(376.079 760.443)"/><ellipse class="j" cx="122.426" cy="79.453" rx="122.426" ry="79.453" transform="translate(376.079 760.443)"/><ellipse class="k" cx="108.412" cy="70.474" rx="108.412" ry="70.474" transform="translate(390.093 769.514)"/><g class="l" transform="translate(388.96 754.713)"><ellipse class="m" cx="108.412" cy="70.474" rx="108.412" ry="70.474" transform="translate(0.093 14.569)"/></g><g transform="translate(388.96 735.744)"><g class="n"><ellipse class="o" cx="108.412" cy="70.474" rx="108.412" ry="70.474" transform="translate(0.093 33.896)"/></g><ellipse class="p" cx="62.658" cy="36.683" rx="62.658" ry="36.683" transform="translate(45.435 49.552)"/><ellipse class="q" cx="35.041" cy="23.906" rx="35.041" ry="23.906" transform="translate(73.463 62.745)"/></g><path class="r" d="M413.525,729.252s17.313,17.722-6.6,21.431c0,0-34.214-2.473-16.488-36.268,0,0,9.024-13.513,83.266-43.052l9.893,13.378Z" transform="translate(-13.645 -1.426)"/><path class="s" d="M429.809,758.484s16.9,9.067.825,20.607l40.4-23.08-9.893-17.31Z" transform="translate(-32.403 -29.833)"/><g transform="translate(379.579 667.984)"><path class="m" d="M398.973,709.432s34.423-16.985,41.843,37c0,0-4.122,46.983,25.557,55.226s33.389,26.377,32.977,36.268,13.6,15.661,17.313,12.364,25.557-41.213,25.557-46.983,4.947-17.31-18.962-32.147c-12.366-8.243-6.183-28.849.824-44.51s6.183-71.3-52.763-56.05C453.183,675.137,431.538,680.93,398.973,709.432Z" transform="translate(-398.973 -667.984)"/><path class="t" d="M0,41.447s34.423-16.985,41.843,37c0,0-4.122,46.983,25.557,55.226s33.389,26.377,32.977,36.268,13.6,15.661,17.313,12.364,25.557-41.213,25.557-46.983,4.947-17.31-18.962-32.147c-12.366-8.243-6.183-28.849.824-44.51s6.183-71.3-52.763-56.05C54.21,7.153,32.565,12.946,0,41.447Z" transform="translate(0 0)"/></g><path class="u" d="M491.314,775.347s-9.893,39.565,14.839,50.28L551.5,799.251s-11.954-9.067-2.473-56.875Z" transform="translate(-57.525 -31.383)"/><path class="v" d="M528.39,874.637l4.122,2.473,42.046-24.728-3.3-1.648Z" transform="translate(-73.991 -77.096)"/><path class="v" d="M542.65,886.043l4.122,2.473,42.045-24.728-3.3-1.648Z" transform="translate(-80.006 -81.907)"/></g></svg>