<svg xmlns="http://www.w3.org/2000/svg" width="32.688" height="16" viewBox="0 0 32.688 16"><defs><style>.a{fill:#4a5cd5;}</style></defs><path class="a" d="M1.517-7.794a17.5,17.5,0,0,1,2.43,2.377l-.8.816A14.661,14.661,0,0,0,.685-6.978ZM1.246-3.542A18.319,18.319,0,0,1,3.624-.991l-.8.816A17.368,17.368,0,0,0,.43-2.726ZM3.794,1.543A63.069,63.069,0,0,1,1.636,7.564L.515,7.079A58.079,58.079,0,0,0,2.758,1.126ZM10.3-7.29V3.3H9.214v-9.51H5.7V3.4H4.609V-7.29ZM8.483,4.111a19.9,19.9,0,0,1,2.6,2.829l-.816.833A17.746,17.746,0,0,0,7.736,4.84ZM6.954-5.017H7.973v5.5a11.327,11.327,0,0,1-.917,4.738A5.936,5.936,0,0,1,4.321,7.79L3.675,6.749A5.2,5.2,0,0,0,6.224,4.406,10.345,10.345,0,0,0,6.954.484ZM12.1,7.634l-.255-1.163q.985.087,1.716.087.595,0,.595-.694v-13.9h1.155v14.2q0,1.475-1.342,1.475ZM11.643-6.613h1.07V4.215h-1.07ZM24.674.085h-1.6V-1.078h4.4V.085h-1.6v4.7q1.206-.278,2.209-.573V5.378a45.127,45.127,0,0,1-4.774,1.093l-.306-1.18q.866-.1,1.665-.26Zm6.439,7.427q-.883,0-1.546-1.354a14.085,14.085,0,0,1-1.121-4.252Q28.174-.3,28.072-3.8H22.687V-5.017h5.352Q28-6.023,28-8.193h1.189q0,2.187.034,3.176h3.381V-3.8H29.245A52.221,52.221,0,0,0,29.788,3.1q.561,2.95,1.325,3.054.527-.1,1.036-3.193l.968.8Q32.286,7.512,31.114,7.512ZM30.655-8.21a19.085,19.085,0,0,1,1.7,2.187l-.849.607a21.127,21.127,0,0,0-1.716-2.256Zm-11.213.243a19.771,19.771,0,0,1,2.735,2.672l-.833.868a17.9,17.9,0,0,0-2.752-2.69ZM17.4-2.83h3.568V4.736q.612-.607,1.563-1.666l.323,1.319a22.064,22.064,0,0,1-2.973,2.759l-.476-1.111a.949.949,0,0,0,.374-.711V-1.633H17.4Z" transform="translate(-0.43 8.21)"/></svg>