<svg xmlns="http://www.w3.org/2000/svg" width="20.867" height="28" viewBox="0 0 20.867 28"><defs><style>.a{fill:#4a5cd5;}.b{fill:none;stroke:#fff;stroke-linecap:round;stroke-linejoin:round;stroke-width:1.5px;}</style></defs><path class="a" d="M117.791,27.254l7.4,4.272a.57.57,0,0,1,.208.778l-9.683,16.772c-.054.122-.778.209-.778.209l-5.305.883-2.094-5.156a3.271,3.271,0,0,1-.208-.778l9.683-16.772A.57.57,0,0,1,117.791,27.254Z" transform="translate(-107.324 -22.168)"/><path class="a" d="M130.308,18.612l5.426,3.133a1.709,1.709,0,0,1,.625,2.334l-1.139,1.973-8.386-4.842,1.139-1.973A1.709,1.709,0,0,1,130.308,18.612Z" transform="translate(-115.722 -18.383)"/><line class="b" x1="2.278" y2="3.947" transform="translate(10.404 14.916)"/></svg>