<svg xmlns="http://www.w3.org/2000/svg" xmlns:xlink="http://www.w3.org/1999/xlink" width="15" height="16" viewBox="0 0 15 16"><defs><style>.a{fill:none;}.b{clip-path:url(#a);}.c{fill:#39ffd0;}</style><clipPath id="a"><rect class="a" width="15" height="16"/></clipPath></defs><g transform="translate(46 -22)"><g transform="translate(-46 22)"><g class="b" transform="translate(0 0)"><path class="c" d="M-34.325,24.787A7.53,7.53,0,0,1-32.984,26a7.959,7.959,0,0,1,1.005,1.468,7.222,7.222,0,0,1,.636,1.669,7.4,7.4,0,0,1,.218,1.786,7.245,7.245,0,0,1-.6,2.927,7.651,7.651,0,0,1-1.608,2.382,7.647,7.647,0,0,1-2.379,1.61,7.232,7.232,0,0,1-2.923.6,7.2,7.2,0,0,1-2.907-.6,7.74,7.74,0,0,1-2.387-1.61,7.471,7.471,0,0,1-1.609-2.382,7.347,7.347,0,0,1-.586-2.927,7.33,7.33,0,0,1,.209-1.744,7.79,7.79,0,0,1,.6-1.627,7.214,7.214,0,0,1,.955-1.443A8.181,8.181,0,0,1-43.087,24.9a1.034,1.034,0,0,1,.8-.2,1.051,1.051,0,0,1,.7.419,1,1,0,0,1,.2.788,1.057,1.057,0,0,1-.419.7,5.214,5.214,0,0,0-1.617,1.9,5.337,5.337,0,0,0-.561,2.415,5.27,5.27,0,0,0,.418,2.089,5.4,5.4,0,0,0,1.148,1.711,5.493,5.493,0,0,0,1.709,1.157,5.151,5.151,0,0,0,2.086.428,5.15,5.15,0,0,0,2.086-.428,5.492,5.492,0,0,0,1.709-1.157,5.5,5.5,0,0,0,1.156-1.711,5.174,5.174,0,0,0,.428-2.089,5.314,5.314,0,0,0-.6-2.474,5.236,5.236,0,0,0-1.692-1.92,1.007,1.007,0,0,1-.444-.688,1.06,1.06,0,0,1,.176-.805,1.024,1.024,0,0,1,.687-.427,1.054,1.054,0,0,1,.8.176Zm-4.305,6.19a1.018,1.018,0,0,1-.746-.31,1.02,1.02,0,0,1-.31-.747V23.545a1.048,1.048,0,0,1,.31-.755,1,1,0,0,1,.746-.319,1.02,1.02,0,0,1,.762.319,1.045,1.045,0,0,1,.31.755V29.92a1.017,1.017,0,0,1-.31.747,1.035,1.035,0,0,1-.762.31Zm0,0" transform="translate(46.117 -22.462)"/></g></g></g></svg>