<svg xmlns="http://www.w3.org/2000/svg" width="27.694" height="27.664" viewBox="0 0 27.694 27.664"><defs><style>.a{fill:#edeef5;}.b{fill:#5e86c4;}.c{fill:#ede7e6;}.d{fill:#e3dcdb;}.e{fill:#eee7e6;}.f{fill:#f7edeb;}</style></defs><g transform="translate(66 -25)"><path class="a" d="M-66,38.832A13.839,13.839,0,0,0-52.153,52.664,13.839,13.839,0,0,0-38.306,38.832,13.84,13.84,0,0,0-52.153,25,13.84,13.84,0,0,0-66,38.832Zm0,0"/><path class="b" d="M3.707,524.856a13.842,13.842,0,0,0,11.874-6.715v-.019c-.7-1.062-5.5-2.669-7.379-2.669-3.735,6.522-8.776,1.122-8.685.061-2.608-.179-5.752,1.7-7.5,2.926a13.836,13.836,0,0,0,11.687,6.417Zm0,0" transform="translate(-55.86 -472.192)"/><path class="c" d="M194.957,425.225c.576,1.489,5.162,5.692,8.625-.355l.086,0a3.925,3.925,0,0,1-.96-3.505c-1.739,2.719-5.051,2.88-6.753.071a5.439,5.439,0,0,1-1,3.787Zm0,0" transform="translate(-251.241 -381.609)"/><path class="d" d="M219.355,389.612c.154.546,4.13,4.254,7.733,3.345-1.054-1.3-.681-3.322-.615-4.527.373-.819-7.007.455-7.117,1.183Zm0,0" transform="translate(-274.73 -349.643)"/><path class="e" d="M417.873,297.015a8.791,8.791,0,0,1-.6,3.161c2-.57,2.467-5.053.6-3.161Zm0,0" transform="translate(-465.279 -261.442)"/><path class="f" d="M201.014,192.652a6.572,6.572,0,0,1-6.346-1.456c-1.283,1.024-.962,3.39-1.374,3.822a2.721,2.721,0,0,1-.194-.279c-.359,9.761,9.026,9.1,8.939.517a5.568,5.568,0,0,1-1.025-2.6Zm0,0" transform="translate(-249.443 -160.008)"/><path class="b" d="M180.405,109.271a6.572,6.572,0,0,0,6.346,1.456,5.606,5.606,0,0,0,1.077,2.684c.664.228,2.589-6.3-3.047-7.189-6.6-1.023-7.445,4.777-5.75,6.87.412-.432.092-2.8,1.374-3.822Zm0,0" transform="translate(-235.18 -78.083)"/></g></svg>