<svg xmlns="http://www.w3.org/2000/svg" xmlns:xlink="http://www.w3.org/1999/xlink" width="151.816" height="128.352" viewBox="0 0 151.816 128.352"><defs><style>.a{fill:#4a5cd5;stroke:rgba(0,0,0,0);stroke-miterlimit:10;}.b{filter:url(#a);}</style><filter id="a" x="0" y="0" width="151.816" height="128.352" filterUnits="userSpaceOnUse"><feOffset input="SourceAlpha"/><feGaussianBlur stdDeviation="3" result="b"/><feFlood flood-color="#4a5cd5" flood-opacity="0.361"/><feComposite operator="in" in2="b"/><feComposite in="SourceGraphic"/></filter></defs><g class="b" transform="matrix(1, 0, 0, 1, 0, 0)"><path class="a" d="M4317.646,107.541l1.205-2.1a54.628,54.628,0,0,0,21.641,1.25l-.138,2.014a59.665,59.665,0,0,1-8.639.637A54.975,54.975,0,0,1,4317.646,107.541Zm-21.412-10.908.006-.012a54.087,54.087,0,0,1,.021-84.393l-.027-.055a56.813,56.813,0,0,1,20.231-10.445V4.176c-.4.107-.81.221-1.211.337a54.511,54.511,0,0,0-18.116,9.517h0a52.128,52.128,0,0,0-.021,80.789,54.9,54.9,0,0,0,19.351,9.837v2.421A56.834,56.834,0,0,1,4296.234,96.633Zm34.113,7.387v-.706c.217,0,.435.008.654.008a48.559,48.559,0,0,0,10.132-1.064l.181.683A49.428,49.428,0,0,1,4331,104.028C4330.782,104.028,4330.564,104.022,4330.347,104.02Zm.654-1.271a47.893,47.893,0,0,1-33.125-13.271l.482-.487a47.3,47.3,0,0,0,64.4.822l.483.487a47.867,47.867,0,0,1-32.235,12.448Zm-.742-4.2a44.071,44.071,0,0,1-26.066-8.52l4.426-5.834a37.026,37.026,0,0,0,51.04-7.451l5.79,4.455a44.294,44.294,0,0,1-35.185,17.352Zm-43.577-18.6.618-.36a50.226,50.226,0,0,0,6.777,9.075l-.506.51A50.861,50.861,0,0,1,4286.682,79.954Zm44.283,8.909a34.267,34.267,0,0,1-19.636-6.17l2.957-3.7a30.9,30.9,0,0,0,41.931-4.513l1.711,1.384a34.4,34.4,0,0,1-26.958,13Zm-37.215-61.57,5.875,4.343a37.625,37.625,0,0,0,7.224,51.137l-4.317,5.917A45,45,0,0,1,4293.75,27.293Zm-3.693,52.568.592-.345a47.7,47.7,0,0,0,6.345,8.119l-.482.487A48.664,48.664,0,0,1,4290.057,79.86Zm14.2-3.7,4.082-3.008a31.084,31.084,0,0,0,3.968,4.219l-3.026,3.789A34.819,34.819,0,0,1,4304.252,76.161Zm28.732,4.681V77.565h.417v3.277Zm-1,0V79.3h.438v1.539Zm-.982,0V77.565h.417v3.277Zm4.106-3.427.413-.074.564,3.227-.409.075Zm-6.785,3.153.565-3.227.408.074-.564,3.228Zm8.052-1.612.431-.077.265,1.516-.431.075Zm-9.041,1.439.264-1.516.43.077-.267,1.514Zm9.727-3.328.413-.074.566,3.23-.413.072Zm-10.7,3.156.566-3.23.411.074-.564,3.228Zm12.762-3.675.391-.144,1.112,3.083-.391.142Zm-15.353,2.939,1.114-3.083.39.144-1.111,3.081Zm16.868-1.642.409-.152.522,1.447-.409.149Zm-17.81,1.3.522-1.447.411.152-.523,1.444Zm18.158-3.277.394-.142,1.111,3.08-.39.145ZM4321.906,78.8l1.114-3.08.39.142-1.111,3.083ZM4284.949,68.61l.661-.178a47.669,47.669,0,0,0,4.058,9.425l-.59.341A48.417,48.417,0,0,1,4284.949,68.61Zm-3.482-1.219.692-.185a50.182,50.182,0,0,0,4.16,10.62l-.619.361A50.915,50.915,0,0,1,4281.467,67.391Zm61.467,7.6.359-.211,1.627,2.841-.36.21Zm-23.453,2.629,1.627-2.841.362.211-1.628,2.839ZM4344.648,76l.375-.221.765,1.334-.376.219Zm-26.036,1.113.764-1.334.378.221-.764,1.332Zm26.04-3.124.359-.21,1.628,2.839-.36.21Zm-26.892,2.629,1.627-2.839.362.21-1.628,2.839Zm28.653-3.828.319-.27,2.092,2.511-.319.271Zm-30.837,2.242,2.091-2.511.321.27-2.093,2.513Zm32.7-1.544.334-.283.982,1.179-.334.282Zm-33.47.9.983-1.179.335.283-.984,1.178ZM4299.287,68l4.891-1.911a31.081,31.081,0,0,0,2.654,4.989l-4.122,3.037A34.436,34.436,0,0,1,4299.287,68Zm48.646,3.514.322-.27,2.092,2.511-.319.27Zm-33.876,2.242,2.093-2.511.317.27-2.09,2.511Zm35.407-3.729.27-.322,2.493,2.107-.268.322Zm-37.287,1.786,2.492-2.107.27.322-2.494,2.107Zm39.243-1.426.281-.337,1.169.989-.28.337Zm-39.887.652,1.17-.989.281.337-1.173.989Zm39.206-2.544.27-.322,2.494,2.107-.267.322ZM4310.9,70.277l2.493-2.107.268.322-2.493,2.107Zm-1.515-2.242,2.818-1.64.208.364-2.82,1.637Zm-.5-.874,1.325-.77.217.381-1.323.769Zm-26.053-10.793h.683a48.511,48.511,0,0,0,1.561,10.209l-.658.179A48.975,48.975,0,0,1,4282.831,56.368Zm25.562,9.934,2.82-1.637.208.363-2.82,1.64Zm-11.674-7.53,5.333-.582a31.484,31.484,0,0,0,1.249,5.479l-4.949,1.933A35.425,35.425,0,0,1,4296.718,58.772Zm-16.967-4.822h.715a50.839,50.839,0,0,0,1.212,11.286l-.69.188A51.494,51.494,0,0,1,4279.751,53.95Zm78.9,11.194v-.6h-11.512v.6H4345.1v-4.4h15.59v4.4Zm-11.512-1.988h11.512V62.108h-11.512Zm-16.834.023a10.523,10.523,0,0,0,3.261-2.412,12.337,12.337,0,0,1-2.64-5.716h-.976v9.915h-2V45.136h10.225a21.226,21.226,0,0,1-.423,5.248q-.418,1.273-2.661,1.273h-1.663l-.577-1.831,1.285.023a7.678,7.678,0,0,0,1.176-.067.962.962,0,0,0,.555-.446,7.523,7.523,0,0,0,.288-2.279h-6.21v6.052h8.383V54.94a14.484,14.484,0,0,1-2.128,5.873,17.649,17.649,0,0,0,3.637,2.547l-1.419,1.652a21.531,21.531,0,0,1-3.416-2.658,12.148,12.148,0,0,1-3.681,2.68Zm4.436-3.952a14.156,14.156,0,0,0,1.62-4.176h-3.55A9.53,9.53,0,0,0,4334.739,59.227Zm31.893,5.761V45.113h7.1v1.675q-1.132,3.262-2.307,6.075a11.355,11.355,0,0,1,2.241,5.36,3.1,3.1,0,0,1-.665,2.233,5.292,5.292,0,0,1-3.349.893l-.71-2.144a8.843,8.843,0,0,0,1.13.112,2.5,2.5,0,0,0,1.222-.291.93.93,0,0,0,.331-.8q0-2.235-2.284-5.047a52.465,52.465,0,0,0,2.352-6.052h-3.016V64.988Zm-46.175-.089-.488-2.032a13.5,13.5,0,0,0,1.819.133c.548,0,.82-.282.82-.848V57.1q-1.463.537-2.926,1.006l-.534-2.1a32.978,32.978,0,0,0,3.46-.983V50.316h-3.037V48.284h3.037V44.421h2.062v3.864h2.307v2.032h-2.307v3.908q1.286-.581,2.375-1.139v2.1q-1.176.581-2.375,1.095v6.386q0,2.235-2.128,2.234Zm51.454-1.72a15.476,15.476,0,0,0,5.234-8.128,47.607,47.607,0,0,0,1.021-10.54h2.063q0,3.305-.266,6.1a25.2,25.2,0,0,0,6.476,12.349l-1.532,1.831a27.545,27.545,0,0,1-5.633-9.715.668.668,0,0,0-.065.291,16.125,16.125,0,0,1-5.923,9.491Zm31.4,1.585-.486-2.032q1.4.136,2.66.135,1.244,0,1.242-1.3V44.511h2.085V62.085q0,2.681-2.573,2.68Zm-13.684-1.9a13.862,13.862,0,0,0,5.7-5,25.575,25.575,0,0,0-3.548-2.3,20.588,20.588,0,0,1-1.53,1.675l-1.02-1.988a13.42,13.42,0,0,0,3.77-8.061h-3.215V45.136h10.889v2.055h-5.61q-.177,1.183-.511,2.568h5.124v1.876q-1.464,9.468-9.027,13.13Zm3.261-8.932a24.794,24.794,0,0,1,3.415,2.188,18.76,18.76,0,0,0,1.4-4.355h-3.792A19.93,19.93,0,0,1,4392.893,53.935Zm-85.606,9.9,3.059-1.122.142.4-3.059,1.121Zm-.345-.949,1.439-.525.149.412-1.436.527Zm-.334-.93,3.06-1.122.143.4-3.06,1.122Zm95.4-1.72V46.208h2.041V60.232Zm-56.157-.357V58.647h14.039v1.228Zm-39.906-.554,3.206-.568.073.413-3.208.57Zm-.174-.994,1.506-.266.074.433-1.5.266Zm40.08-.462V56.636h14.039v1.228Zm-40.25-.511,3.2-.568.073.412-3.206.57Zm-8.884-8.107,5.271.822a31.56,31.56,0,0,0-.181,5.56l-5.353.587A35.127,35.127,0,0,1,4296.718,49.246Zm46.451,6.609v-1.5h8.715l-.42-.715a2.857,2.857,0,0,1-.777.112h-.908l-.156-.536h-4.657V50.473a9.863,9.863,0,0,1-1.2,1.251l-1.11-1.384a5.977,5.977,0,0,0,1.974-3.194l1.152.179V46.7h-2.5V45.18h2.5v-.893h1.731v.893h2.018v-.893h1.729v.893h2.529V46.7h-2.529v.848h-1.729V46.7h-2.018v.848h-1.2l-.111.38h6.962v.937a9.3,9.3,0,0,0,2.4-4.666l1.908.312-.266,1.026h5.013v1.72h-1.2a8.384,8.384,0,0,1-1.6,3.484,16.706,16.706,0,0,0,3.282,1.34l-.954,1.7a14.756,14.756,0,0,1-3.659-1.743,10.417,10.417,0,0,1-3.815,1.7l-.777-1.7a9.766,9.766,0,0,0,3.15-1.184,6.708,6.708,0,0,1-1.241-1.72,10.287,10.287,0,0,1-1.22,1.318l-1.022-1.3a9.716,9.716,0,0,1-.553,3.707,2.353,2.353,0,0,1-.289.334l1-.133a9.724,9.724,0,0,1,.576,1.3h8.495v1.5Zm2.083-5.828h4.592v2.389h.465a.8.8,0,0,0,.754-.58,12.9,12.9,0,0,0,.178-2.5h-5.589Zm1.266,2.121h1.752V51.12h-1.752Zm9.89-4.623a5.241,5.241,0,0,0,1.576,2.211,6.027,6.027,0,0,0,1.243-2.479h-2.685ZM4305.4,55.068v-.421h3.256v.421Zm-22.615-.632a49.007,49.007,0,0,1,1.085-10.511l.658.178a48.724,48.724,0,0,0-1.063,10.333Zm22.615-.357v-.439h1.528v.439Zm0-1.009v-.42h3.256v.42Zm-25.6-1.144a51.33,51.33,0,0,1,1.783-11.34l.69.187a50.681,50.681,0,0,0-1.757,11.153Zm25.8-1.56.071-.415,3.206.57-.073.413Zm.169-.974.077-.435,1.5.266-.074.433Zm.174-1,.071-.413,3.208.57-.073.412Zm-8.78-1.681a34.734,34.734,0,0,1,2.072-6.51l4.7,2.087a31.4,31.4,0,0,0-1.542,5.237Zm9.442-.949.143-.394,3.06,1.122-.143.394Zm.334-.93.152-.412,1.436.527-.149.412Zm.345-.946.142-.4,3.059,1.121-.142.394Zm1.106-2.476.208-.363,2.82,1.639-.208.364Zm-24.08.632a48.507,48.507,0,0,1,3.727-9.914l.59.346a47.784,47.784,0,0,0-3.657,9.744Zm24.571-1.487.218-.381,1.324.769-.217.381Zm.5-.876.207-.364,2.82,1.64-.208.364Zm-9.047-1.8a35.023,35.023,0,0,1,3.681-5.657l3.82,3.092a31.272,31.272,0,0,0-2.846,4.631Zm50.4,1.343,2.5-2.109.267.323-2.494,2.106ZM4310.9,37.441l.268-.323,2.493,2.109-.268.32Zm-28.746,1.2a50.8,50.8,0,0,1,4.667-10.442l.621.361a50,50,0,0,0-4.594,10.266Zm67.309-.949,2.5-2.107.268.32-2.493,2.109Zm-37.287-1.787.268-.32,2.494,2.107-.27.32Zm39.243,1.427,1.17-.989.28.337-1.169.989Zm-39.888-.652.279-.337,1.171.989-.279.337Zm36.4-.476,2.1-2.511.319.27-2.092,2.511Zm-33.876-2.242.319-.27,2.09,2.511-.317.27Zm32.358.957,2.093-2.51.319.27-2.092,2.51Zm-30.839-2.24.321-.27,2.093,2.51-.321.27Zm-.769.648.335-.282.984,1.179-.335.283Zm33.47.9.981-1.179.335.282-.98,1.179Zm4.907-3.958,1.357-1.7a34.448,34.448,0,0,1,3.974,4.409l-1.568,1.155A31.31,31.31,0,0,0,4353.184,30.268Zm-8.531,3.456,1.627-2.839.36.21-1.628,2.839ZM4317.761,31.1l.361-.21,1.628,2.839-.362.21Zm-12.061-.809a34.412,34.412,0,0,1,46.913-3.407l-1.427,1.787a30.9,30.9,0,0,0-41.748,4.646Zm37.233,2.438,1.626-2.838.36.208-1.627,2.839ZM4319.48,30.1l.361-.208,1.628,2.838-.362.21Zm21.508,1.758,1.115-3.081.39.144L4341.383,32Zm-19.083-2.937.393-.144,1.111,3.081-.39.144Zm22.742,2.8.763-1.332.376.219-.765,1.332ZM4318.613,30.6l.378-.219.764,1.332-.378.219Zm20.513.568,1.112-3.078.391.142-1.112,3.08Zm-15.353-2.936.393-.142,1.111,3.078-.39.144Zm-34.828,2.2a48.507,48.507,0,0,1,6.2-8.693l.484.487a47.686,47.686,0,0,0-6.093,8.549Zm48.115.222.566-3.23.413.074-.566,3.228Zm-10.7-3.156.413-.074.564,3.23-.411.072Zm8.742,2.808.567-3.228.409.072-.564,3.23Zm-6.785-3.156.409-.072.564,3.228-.408.074Zm4.663,3.006V26.875h.417v3.279Zm-1.984,0V26.875h.417v3.279Zm9.641-.279.521-1.447.409.152-.522,1.444Zm-17.81-1.3.41-.152.523,1.447-.411.149Zm-27.073-3.043a44.274,44.274,0,0,1,61.136-7.669l-4.426,5.833a37.019,37.019,0,0,0-50.917,6.292Zm-7.615,3.735a49.814,49.814,0,0,1,6.339-8.7l.5.5a49.2,49.2,0,0,0-6.228,8.549Zm48.23-.508.266-1.516.431.078-.265,1.514Zm-9.041-1.438.427-.078.267,1.516-.43.077Zm4.649,1.089V26.875h.438v1.539Zm34-9.283.505-.51a51.026,51.026,0,0,1,6.771,8.664l-.622.36A50.21,50.21,0,0,0,4365.983,19.131Zm-78.1,7.352a51.168,51.168,0,0,1,6.672-8.289c.16-.159.32-.312.48-.47l.505.51c-.16.158-.32.311-.479.47a50.379,50.379,0,0,0-6.556,8.139Zm8.575-6.153c.147-.155.294-.309.444-.462a47.98,47.98,0,0,1,67.786-.4l-.481.485a47.306,47.306,0,0,0-66.823.4c-.15.153-.3.308-.445.461Zm-.622-1.191A49.862,49.862,0,0,1,4304.2,12.3l.351.613a49.218,49.218,0,0,0-8.223,6.723Zm1.172-2.291-.508-.511a50.319,50.319,0,0,1,68.556.864l-.507.51A49.6,49.6,0,0,0,4297.011,16.848Zm8.869-5.585a49.143,49.143,0,0,1,9.847-4.47l.183.681a48.467,48.467,0,0,0-9.68,4.4Zm11.733-5.046a48.938,48.938,0,0,1,10.765-1.776v.706A48.366,48.366,0,0,0,4317.794,6.9Zm-.146-4.574a56.592,56.592,0,0,1,22.72-.9l.119,2.064a54.649,54.649,0,0,0-21.657.946Z" transform="translate(-4266.5 9.51)"/></g></svg>