<svg xmlns="http://www.w3.org/2000/svg" width="32.126" height="42" viewBox="0 0 32.126 42"><defs><style>.a{fill:#f44;}</style></defs><g transform="translate(-101 -309)"><path class="a" d="M117.063,309a16.076,16.076,0,0,0-7.663,30.2v6.8c0,2.754,2.515,4.995,5.606,4.995h4.112c3.092,0,5.606-2.241,5.606-4.995v-6.8a16.076,16.076,0,0,0-7.662-30.2Zm2.346,39.034h-4.692a1.362,1.362,0,1,1,0-2.724h4.692a1.362,1.362,0,1,1,0,2.724Zm0-4.39h-4.692a1.362,1.362,0,1,1,0-2.724h4.692a1.362,1.362,0,1,1,0,2.724Zm7.471-17.356a1.362,1.362,0,0,1-1.362-1.362,8.578,8.578,0,0,0-.126-1.467,8.465,8.465,0,0,0-5.069-6.37,1.362,1.362,0,0,1,1.061-2.509,11.179,11.179,0,0,1,6.692,8.414,11.336,11.336,0,0,1,.166,1.933,1.362,1.362,0,0,1-1.362,1.362Zm0,0"/></g></svg>