<svg xmlns="http://www.w3.org/2000/svg" width="39.111" height="44" viewBox="0 0 39.111 44"><defs><style>.a{fill:#f44;}</style></defs><path class="a" d="M287.01,81.034c-2.975-6.132-1.409-9.658.94-12.878a20.662,20.662,0,0,0,3.131-7.206,8.052,8.052,0,0,1,1.253,6.439c3.445-3.833,4.071-9.965,3.6-12.265,7.829,5.366,11.274,17.171,6.733,25.756,6.318-3.535,9.733-7.522,11.484-12.088,4.143-10.7-6.355-22.049-8.666-23.633,1.1,2.3,1.253,6.132-.939,7.972-3.6-13.491-12.526-16.1-12.526-16.1,1.1,6.9-3.758,14.411-8.455,20.084a14.322,14.322,0,0,0-1.879-7.359c-.313,5.059-4.228,9.045-5.324,14.1-1.409,6.9,1.1,11.8,10.647,17.171Zm0,0" transform="translate(-275.999 -37.034)"/></svg>