<svg xmlns="http://www.w3.org/2000/svg" width="44.571" height="42" viewBox="0 0 44.571 42"><defs><style>.a{fill:#909399;}</style></defs><g transform="translate(-1123.608 -139.141)"><g transform="translate(1132.783 147.192)"><path class="a" d="M1330.158,309a12.994,12.994,0,0,0-6.194,24.412v5.5a4.311,4.311,0,0,0,4.532,4.037h3.324a4.311,4.311,0,0,0,4.532-4.037v-5.5A12.994,12.994,0,0,0,1330.158,309Zm1.9,31.551h-3.793a1.1,1.1,0,1,1,0-2.2h3.793a1.1,1.1,0,1,1,0,2.2Zm0-3.549h-3.793a1.1,1.1,0,1,1,0-2.2h3.793a1.1,1.1,0,1,1,0,2.2Zm6.039-14.029a1.1,1.1,0,0,1-1.1-1.1,6.982,6.982,0,0,0-.1-1.186,6.843,6.843,0,0,0-4.1-5.149,1.1,1.1,0,0,1,.858-2.028,9.037,9.037,0,0,1,5.409,6.8,9.177,9.177,0,0,1,.134,1.562,1.1,1.1,0,0,1-1.1,1.1Zm0,0" transform="translate(-1317.174 -309)"/></g><g transform="translate(1123.608 139.141)"><path class="a" d="M1551.7,144.718a2.094,2.094,0,0,0,2.094-2.094v-1.388a2.094,2.094,0,1,0-4.189,0v1.388a2.11,2.11,0,0,0,2.094,2.094Z" transform="translate(-1529.414 -139.141)"/><path class="a" d="M1129.185,566.717a2.1,2.1,0,0,0-2.094-2.095H1125.7a2.095,2.095,0,0,0,0,4.189h1.388a2.079,2.079,0,0,0,2.094-2.095Z" transform="translate(-1123.608 -544.456)"/><path class="a" d="M1337.965,200.642a2.085,2.085,0,0,0,3.6-2.095l-.682-1.193a2.085,2.085,0,0,0-3.6,2.095Z" transform="translate(-1326.883 -193.603)"/><path class="a" d="M1749.132,201.4a2.077,2.077,0,0,0,2.85-.755l.706-1.194a2.084,2.084,0,1,0-3.6-2.095l-.706,1.193a2.072,2.072,0,0,0,.755,2.85Z" transform="translate(-1718.492 -193.603)"/><path class="a" d="M1896.138,356.612l1.193-.706a2.084,2.084,0,1,0-2.094-3.6l-1.193.706a2.077,2.077,0,0,0-.755,2.85,2.121,2.121,0,0,0,2.85.755Z" transform="translate(-1856.535 -341.926)"/><path class="a" d="M1949.793,565.137H1948.4a2.094,2.094,0,1,0,0,4.189h1.389a2.094,2.094,0,0,0,0-4.189Z" transform="translate(-1907.317 -544.946)"/><path class="a" d="M1183.529,763.394l-1.193.706a2.085,2.085,0,0,0,2.095,3.6l1.193-.706a2.085,2.085,0,0,0-2.095-3.6Z" transform="translate(-1178.561 -733.534)"/><path class="a" d="M1897.331,763.588l-1.193-.706a2.084,2.084,0,1,0-2.094,3.6l1.193.706a2.084,2.084,0,1,0,2.094-3.6Z" transform="translate(-1856.535 -733.046)"/><path class="a" d="M1185.624,352.493l-1.193-.706a2.085,2.085,0,0,0-2.095,3.6l1.193.706a2.085,2.085,0,0,0,2.095-3.6Z" transform="translate(-1178.561 -341.436)"/></g></g></svg>