<svg xmlns="http://www.w3.org/2000/svg" xmlns:xlink="http://www.w3.org/1999/xlink" width="42" height="42" viewBox="0 0 42 42"><defs><style>.a{fill:#fff700;}.b{fill:#4a5cd5;}.c{clip-path:url(#a);}</style><clipPath id="a"><rect class="a" width="17.076" height="17.099"/></clipPath></defs><g transform="translate(-644 -1)"><g transform="translate(644 1)"><rect class="b" width="42" height="42" rx="21"/></g><g transform="translate(655.96 12.961)"><g class="c" transform="translate(0 0)"><path class="a" d="M-27.359,62.1l-2.429-2.428a7.963,7.963,0,0,0,1.7-4.911,8.022,8.022,0,0,0-8.014-8.012,8.022,8.022,0,0,0-8.014,8.012,8.022,8.022,0,0,0,8.014,8.012A7.961,7.961,0,0,0-31.2,61.08l2.43,2.429a1,1,0,0,0,1.416,0,1,1,0,0,0,0-1.415Zm-15.235-7.339a6.494,6.494,0,0,1,6.487-6.486,6.494,6.494,0,0,1,6.487,6.486,6.494,6.494,0,0,1-6.487,6.486,6.494,6.494,0,0,1-6.487-6.486Z" transform="translate(44.117 -46.729)"/><rect class="a" width="6.878" height="1.474" rx="0.737" transform="translate(4.794 7.369)"/></g></g></g></svg>