<svg xmlns="http://www.w3.org/2000/svg" xmlns:xlink="http://www.w3.org/1999/xlink" width="30" height="30" viewBox="0 0 30 30"><defs><style>.a{fill:none;}.b{clip-path:url(#a);}.c{fill:#909399;}</style><clipPath id="a"><rect class="a" width="30" height="30" transform="translate(0 0)"/></clipPath></defs><g transform="translate(-185 6.443)"><g class="b" transform="translate(185 -6.443)"><path class="c" d="M213.939-4.331a1.077,1.077,0,0,0-.8-.8,18.105,18.105,0,0,0-16.88,4.826,17.9,17.9,0,0,0-1.779,2.072,1.092,1.092,0,0,1-.621.413,14.148,14.148,0,0,0-6.6,3.748,14.437,14.437,0,0,0-2.217,2.849,1.093,1.093,0,0,0,1.336,1.566,14.007,14.007,0,0,1,4.849-.838c-.024.144-.059.286-.078.431q1.78,2.069,3.711,4t4,3.707c.145-.021.286-.055.429-.078a13.965,13.965,0,0,1-.837,4.844,1.094,1.094,0,0,0,1.568,1.335,14.463,14.463,0,0,0,2.852-2.215,14.128,14.128,0,0,0,3.751-6.6,1.092,1.092,0,0,1,.413-.622,17.785,17.785,0,0,0,2.076-1.777,18.054,18.054,0,0,0,4.831-16.862ZM206.567,7.4a3.659,3.659,0,1,1-.054-5.118,3.663,3.663,0,0,1,.054,5.118Zm0,0" transform="translate(-184.883 6.07)"/><path class="c" d="M188.969,568.437c-.955.956-5.006,6.868-3.853,8.022s7.072-2.9,8.029-3.849a3,3,0,0,0-4.176-4.173Zm0,0" transform="translate(-184.915 -546.699)"/></g></g></svg>