<svg xmlns="http://www.w3.org/2000/svg" width="40" height="42" viewBox="0 0 40 42"><defs><style>.a{fill:#909399;}.b{fill:#fff;}</style></defs><g transform="translate(-72 -479)"><rect class="a" width="34" height="41" rx="3" transform="translate(72 479)"/><g transform="translate(87 488.791)"><path class="b" d="M315.909,117.764a1.385,1.385,0,0,0,2.726,0l.909-12.493A2.276,2.276,0,0,0,317.271,103,2.335,2.335,0,0,0,315,105.5Z" transform="translate(-315 -103)"/><circle class="b" cx="2" cy="2" r="2" transform="translate(0.271 17.726)"/></g><rect class="b" width="12" height="2" rx="1" transform="translate(83 483)"/><circle class="b" cx="9.5" cy="9.5" r="9.5" transform="translate(93 502)"/><path class="a" d="M5.168,1.248a1,1,0,0,1,1.664,0l4.131,6.2A1,1,0,0,1,10.131,9H1.869a1,1,0,0,1-.832-1.555Z" transform="translate(108 505) rotate(90)"/></g></svg>