<svg xmlns="http://www.w3.org/2000/svg" width="27.839" height="28" viewBox="0 0 27.839 28"><defs><style>.a{fill:#4a5cd5;}.b,.c,.d{fill:none;stroke-linecap:round;}.b{stroke:#4a5cd5;}.b,.c{stroke-width:2px;}.c{stroke:#fff;stroke-linejoin:round;}.e,.f{stroke:none;}.f{fill:#4a5cd5;}</style></defs><g transform="translate(1)"><path class="a" d="M1,0H19.671a1,1,0,0,1,1,1V18.738a4,4,0,0,1-4,4H4a4,4,0,0,1-4-4V1A1,1,0,0,1,1,0Z" transform="translate(2.583 5.262)"/><path class="b" d="M0,0H25.839" transform="translate(0 5.685)"/><line class="c" y2="8.268" transform="translate(7.775 12.309)"/><line class="c" y2="8.268" transform="translate(13.037 12.309)"/><line class="c" y2="8.268" transform="translate(18.298 12.309)"/><g class="d" transform="translate(5.684)"><path class="e" d="M3.1,0h8.268c1.142,0,1.8.822,2.067,1.949L14.47,6.2H0L1.034,1.949C1.336.883,1.959,0,3.1,0Z"/><path class="f" d="M 3.100668907165527 1.500000953674316 C 2.965238571166992 1.500000953674316 2.910768508911133 1.533280849456787 2.839898109436035 1.607880592346191 C 2.761275291442871 1.690646648406982 2.611741065979004 1.894133567810059 2.483822822570801 2.333278656005859 L 1.90825080871582 4.701340675354004 L 12.56154632568359 4.701340675354004 L 11.97547912597656 2.289860725402832 C 11.90384864807129 1.982880592346191 11.79015827178955 1.733110904693604 11.66354846954346 1.604580879211426 C 11.60926818847656 1.549470901489258 11.54590797424316 1.500000953674316 11.36912822723389 1.500000953674316 L 3.100668907165527 1.500000953674316 M 3.100668907165527 9.5367431640625e-07 L 11.36912822723389 9.5367431640625e-07 C 12.51075839996338 9.5367431640625e-07 13.17330837249756 0.8222308158874512 13.43623828887939 1.948990821838379 L 14.46979904174805 6.201340675354004 L -1.9073486328125e-06 6.201340675354004 L 1.03355884552002 1.948990821838379 C 1.335848808288574 0.883141040802002 1.959038734436035 9.5367431640625e-07 3.100668907165527 9.5367431640625e-07 Z"/></g></g></svg>