<svg xmlns="http://www.w3.org/2000/svg" width="18" height="18" viewBox="0 0 18 18"><defs><style>.a{fill:#707070;}</style></defs><path class="a" d="M-43.354,58.536a.75.75,0,0,1,.75.75v.75h12v-.75a.75.75,0,0,1,.75-.75h1.5a.75.75,0,0,1,.75.75v3a.75.75,0,0,1-.615.738l-.135.012h-16.5a.75.75,0,0,1-.75-.75v-3a.75.75,0,0,1,.75-.75Zm.389-13.5.1.013c3.177.146,9.07,1.242,9.07,7.383h2.04a.4.4,0,0,1,.36.207.344.344,0,0,1-.052.39l-4.647,5.258a.774.774,0,0,1-.563.248.777.777,0,0,1-.57-.234l-4.649-5.273a.345.345,0,0,1-.067-.4.4.4,0,0,1,.37-.21h2.025V52.05c-.123-3.132-1.164-5.13-3.525-6.308a.357.357,0,0,1-.273-.443.394.394,0,0,1,.478-.251l-.1-.013Zm0,0" transform="translate(45.604 -45.036)"/></svg>