<svg xmlns="http://www.w3.org/2000/svg" width="46" height="46" viewBox="0 0 46 46"><defs><style>.a{fill:#9fa6b4;}</style></defs><g transform="translate(-64 -82)"><path class="a" d="M340.7,473.468l-9.567-9.567,4.465-4.464,9.885,9.885V463.9h6.378v15.945H335.916v-6.378Z" transform="translate(-241.861 -351.898)"/><path class="a" d="M9.567,14.031,0,4.464,4.465,0,14.35,9.885V4.464h6.378V20.409H4.783V14.031Z" transform="translate(89.591 102.728) rotate(-90)"/><path class="a" d="M9.567,14.031,0,4.464,4.465,0,14.35,9.885V4.464h6.378V20.409H4.783V14.031Z" transform="translate(84.728 102.409) rotate(180)"/><path class="a" d="M9.567,14.031,0,4.464,4.465,0,14.35,9.885V4.464h6.378V20.409H4.783V14.031Z" transform="translate(84.409 107.272) rotate(90)"/></g></svg>