<svg xmlns="http://www.w3.org/2000/svg" width="28" height="20" viewBox="0 0 28 20"><defs><style>.a{fill:#4a5cd5;}.b,.c{fill:#fff;}.c{stroke-linecap:square;}.d,.e{stroke:none;}.e{fill:#4a5cd5;}</style></defs><g transform="translate(-1318 -337)"><rect class="a" width="28" height="20" rx="1" transform="translate(1318 337)"/><circle class="b" cx="2.5" cy="2.5" r="2.5" transform="translate(1323 341)"/><g class="c" transform="translate(1324 346)"><path class="d" d="M 13.03966999053955 9.500003814697266 L 0.9603300094604492 9.500003814697266 L 7 0.8718935251235962 L 13.03966999053955 9.499993324279785 C 13.03966999053955 9.499994277954102 13.03967094421387 9.499994277954102 13.03967094421387 9.499995231628418 C 13.03966999053955 9.499998092651367 13.03966808319092 9.500000953674316 13.0396671295166 9.500003814697266 L 13.03966999053955 9.500003814697266 Z"/><path class="e" d="M 6.999998569488525 1.743783950805664 L 1.920653343200684 9.000003814697266 L 12.07935523986816 9.000003814697266 L 6.999998569488525 1.743783950805664 M 6.999996185302734 0.3718938827514648 C 7.15504264831543 0.3718938827514648 7.310090065002441 0.4429836273193359 7.409619808197021 0.5851631164550781 L 13.44929027557373 9.213263511657715 C 13.68126010894775 9.54465389251709 13.44417953491211 10.00000381469727 13.03966999053955 10.00000381469727 L 0.9603300094604492 10.00000381469727 C 0.5558204650878906 10.00000381469727 0.3187398910522461 9.54465389251709 0.5507097244262695 9.213263511657715 L 6.590380191802979 0.5851631164550781 C 6.689905166625977 0.4429836273193359 6.844950199127197 0.3718938827514648 6.999996185302734 0.3718938827514648 Z"/></g><g class="c" transform="translate(1330 343)"><path class="d" d="M 15.1052188873291 12.50000190734863 L 0.8947790265083313 12.50000190734863 L 7.999999046325684 0.9540221691131592 L 15.1052188873291 12.50000190734863 Z"/><path class="e" d="M 8 1.90804386138916 L 1.789557456970215 12.00000190734863 L 14.21043491363525 12.00000190734863 L 8 1.90804386138916 M 7.999999046325684 0.4540195465087891 C 8.164104461669922 0.4540195465087891 8.328208923339844 0.5333375930786133 8.42582893371582 0.6919717788696289 L 15.53104877471924 12.23795223236084 C 15.73604869842529 12.57108211517334 15.49637889862061 13.00000190734863 15.1052188873291 13.00000190734863 L 0.8947792053222656 13.00000190734863 C 0.5036191940307617 13.00000190734863 0.2639493942260742 12.57108211517334 0.4689493179321289 12.23795223236084 L 7.574169158935547 0.6919717788696289 C 7.671789169311523 0.5333375930786133 7.835893630981445 0.4540195465087891 7.999999046325684 0.4540195465087891 Z"/></g></g></svg>