<svg xmlns="http://www.w3.org/2000/svg" width="18.534" height="18.534" viewBox="0 0 18.534 18.534"><defs><style>.a{fill:none;}.b{fill:#fff;}.c,.d{stroke:none;}.d{fill:#fff;}</style></defs><g transform="translate(-1615 -57)"><g class="a" transform="translate(1615 57)"><path class="c" d="M8.165,0A8.165,8.165,0,1,1,0,8.165,8.165,8.165,0,0,1,8.165,0Z"/><path class="d" d="M 8.164851188659668 2.000000953674316 C 4.765541076660156 2.000000953674316 2.000000953674316 4.765541076660156 2.000000953674316 8.164851188659668 C 2.000000953674316 11.56416130065918 4.765541076660156 14.32970142364502 8.164851188659668 14.32970142364502 C 11.56416130065918 14.32970142364502 14.32970142364502 11.56416130065918 14.32970142364502 8.164851188659668 C 14.32970142364502 4.765541076660156 11.56416130065918 2.000000953674316 8.164851188659668 2.000000953674316 M 8.164851188659668 1.9073486328125e-06 C 12.67417144775391 1.9073486328125e-06 16.3297004699707 3.65553092956543 16.3297004699707 8.164851188659668 C 16.3297004699707 12.67417144775391 12.67417144775391 16.3297004699707 8.164851188659668 16.3297004699707 C 3.65553092956543 16.3297004699707 1.9073486328125e-06 12.67417144775391 1.9073486328125e-06 8.164851188659668 C 1.9073486328125e-06 3.65553092956543 3.65553092956543 1.9073486328125e-06 8.164851188659668 1.9073486328125e-06 Z"/></g><path class="b" d="M1660.934,104.42l1.486-1.486,3.261,3.261-1.486,1.486Z" transform="translate(-32.147 -32.147)"/></g></svg>