<svg xmlns="http://www.w3.org/2000/svg" xmlns:xlink="http://www.w3.org/1999/xlink" width="42" height="42" viewBox="0 0 42 42"><defs><style>.a{fill:#fff700;}.b{fill:#4a5cd5;}.c{clip-path:url(#a);}</style><clipPath id="a"><rect class="a" width="17.18" height="17.203"/></clipPath></defs><g transform="translate(-604 -1)"><g transform="translate(604 1)"><rect class="b" width="42" height="42" rx="21"/></g><g transform="translate(615.964 12.965)"><g transform="translate(0 0)"><g transform="translate(0 0)"><g class="c"><path class="a" d="M-27.257,62.192-29.7,59.749a8.012,8.012,0,0,0,1.706-4.941,8.071,8.071,0,0,0-8.063-8.061,8.071,8.071,0,0,0-8.063,8.061,8.071,8.071,0,0,0,8.063,8.061,8.009,8.009,0,0,0,4.936-1.7l2.445,2.444a1.008,1.008,0,0,0,1.424,0,1.007,1.007,0,0,0,0-1.424Zm-15.328-7.384a6.534,6.534,0,0,1,6.527-6.526,6.534,6.534,0,0,1,6.527,6.526,6.534,6.534,0,0,1-6.527,6.526,6.534,6.534,0,0,1-6.527-6.526Zm9.244-.768h-1.949V52.091a.754.754,0,0,0-.768-.738.753.753,0,0,0-.768.738V54.04h-1.949a.754.754,0,0,0-.738.768.753.753,0,0,0,.738.768h1.949v1.949a.754.754,0,0,0,.768.738.754.754,0,0,0,.768-.738V55.576h1.949a.754.754,0,0,0,.739-.768.754.754,0,0,0-.739-.768Zm0,0" transform="translate(44.117 -46.729)"/></g></g></g></g></g></svg>