<svg xmlns="http://www.w3.org/2000/svg" xmlns:xlink="http://www.w3.org/1999/xlink" width="25" height="30" viewBox="0 0 25 30"><defs><style>.a{fill:none;}.b{clip-path:url(#a);}.c{fill:#909399;}</style><clipPath id="a"><rect class="a" width="25" height="30"/></clipPath></defs><g transform="translate(-278 -31.874)"><g transform="translate(278 31.874)"><g class="b" transform="translate(0 0)"><path class="c" d="M616.719,474.009a1.079,1.079,0,0,0-1.557,0l-6.925,7.061a1.135,1.135,0,0,0-.323.794v2.883a1.112,1.112,0,0,0,1.1,1.123h2.827a1.091,1.091,0,0,0,.779-.329l6.925-7.061a1.139,1.139,0,0,0,0-1.588Zm0,0" transform="translate(-594.902 -455.908)"/></g></g><path class="c" d="M300.039,32.107h-19.1a2.968,2.968,0,0,0-2.939,3V59.078a3.027,3.027,0,0,0,.861,2.119,2.91,2.91,0,0,0,2.078.878h7.868V58.591a1.62,1.62,0,0,1,.463-1.139l9.925-10.129a3.429,3.429,0,0,1,1.837-1.064,2.28,2.28,0,0,1,.933,0,1.5,1.5,0,0,0,1.014-1.416V35.1a2.968,2.968,0,0,0-2.938-3Zm-9.183,17.231h-5.877a1.124,1.124,0,0,1,0-2.248h5.877a1.124,1.124,0,0,1,0,2.248Zm4.408-6.743H284.979a1.124,1.124,0,0,1,0-2.248h10.285a1.124,1.124,0,0,1,0,2.248Zm0,0" transform="translate(0 -0.227)"/></g></svg>