<svg xmlns="http://www.w3.org/2000/svg" xmlns:xlink="http://www.w3.org/1999/xlink" width="30" height="30" viewBox="0 0 30 30"><defs><style>.a{fill:none;}.b{clip-path:url(#a);}.c{fill:#909399;}</style><clipPath id="a"><rect class="a" width="30" height="30"/></clipPath></defs><g transform="translate(-185 6.126)"><g class="b" transform="translate(185 -6.126)"><path class="c" d="M199.868-5.606A14.972,14.972,0,1,0,214.857,9.366,14.986,14.986,0,0,0,199.868-5.606Zm0,23.956a1.527,1.527,0,1,1,1.529-1.527,1.525,1.525,0,0,1-1.529,1.527Zm1.664-17.083-.315,10.9a1.2,1.2,0,0,1-1.289,1.018h-.24a1.2,1.2,0,0,1-1.289-1.018l-.33-10.9a1.56,1.56,0,0,1,1.574-1.6h.315a1.56,1.56,0,0,1,1.574,1.6Zm0,0" transform="translate(-184.884 5.625)"/></g></g></svg>