<svg xmlns="http://www.w3.org/2000/svg" xmlns:xlink="http://www.w3.org/1999/xlink" width="48.3" height="42" viewBox="0 0 48.3 42"><defs><style>.a{fill:none;}.b{clip-path:url(#a);}.c{fill:#ff8bb9;}</style><clipPath id="a"><rect class="a" width="48.3" height="42" transform="translate(0 0)"/></clipPath></defs><g transform="translate(-262 -122.062)"><g class="b" transform="translate(262 122.062)"><path class="c" d="M631.519,378.674a10.986,10.986,0,0,0-6.5,2.141l15.655,16.045a11.64,11.64,0,0,0,2.089-6.665,11.4,11.4,0,0,0-11.241-11.521m-11.241,11.521a11.4,11.4,0,0,0,11.241,11.521,10.987,10.987,0,0,0,6.5-2.141L622.367,383.53a11.629,11.629,0,0,0-2.089,6.665" transform="translate(-594.058 -359.788)"/><path class="c" d="M278.741,145.716h-7.494a1.921,1.921,0,0,1,0-3.84h7.494a1.921,1.921,0,0,1,0,3.84m0,7.681h-7.494a1.921,1.921,0,0,1,0-3.84h7.494a1.921,1.921,0,0,1,0,3.84m-7.494-19.2h14.988a1.921,1.921,0,0,1,0,3.84H271.247a1.921,1.921,0,0,1,0-3.84m28.131,3.777a14.673,14.673,0,0,1,7.466,2.045V126.5a3.794,3.794,0,0,0-3.751-3.827H265.633a3.794,3.794,0,0,0-3.753,3.827V157.25a3.794,3.794,0,0,0,3.753,3.827h20.709a15.615,15.615,0,0,1-2.014-7.681,15.242,15.242,0,0,1,15.05-15.424" transform="translate(-261.889 -122.989)"/></g></g></svg>