<svg xmlns="http://www.w3.org/2000/svg" xmlns:xlink="http://www.w3.org/1999/xlink" width="34.5" height="30" viewBox="0 0 34.5 30"><defs><style>.a{fill:none;}.b{clip-path:url(#a);}.c{fill:#909399;}</style><clipPath id="a"><rect class="a" width="34.5" height="30" transform="translate(0 0)"/></clipPath></defs><g transform="translate(-262 -122.062)"><g class="b" transform="translate(262 122.062)"><path class="c" d="M628.307,378.674a7.847,7.847,0,0,0-4.645,1.529l11.182,11.461a8.314,8.314,0,0,0,1.492-4.76,8.14,8.14,0,0,0-8.029-8.229m-8.029,8.229a8.139,8.139,0,0,0,8.029,8.229,7.848,7.848,0,0,0,4.645-1.529L621.77,382.143a8.306,8.306,0,0,0-1.492,4.761" transform="translate(-601.549 -365.184)"/><path class="c" d="M273.924,139.132h-5.353a1.372,1.372,0,0,1,0-2.743h5.353a1.372,1.372,0,0,1,0,2.743m0,5.486h-5.353a1.372,1.372,0,0,1,0-2.743h5.353a1.372,1.372,0,0,1,0,2.743M268.571,130.9h10.706a1.372,1.372,0,0,1,0,2.743H268.571a1.372,1.372,0,0,1,0-2.743m20.093,2.7A10.481,10.481,0,0,1,294,135.062v-9.654a2.71,2.71,0,0,0-2.679-2.733H264.561a2.71,2.71,0,0,0-2.68,2.733v21.964a2.71,2.71,0,0,0,2.68,2.733h14.792a11.153,11.153,0,0,1-1.438-5.486,10.887,10.887,0,0,1,10.75-11.017" transform="translate(-261.886 -122.899)"/></g></g></svg>