<svg xmlns="http://www.w3.org/2000/svg" width="27.124" height="31.017" viewBox="0 0 27.124 31.017"><defs><style>.a{fill:#909399;stroke:rgba(0,0,0,0);stroke-miterlimit:10;}</style></defs><g transform="translate(-281.5 -44.364)"><path class="a" d="M12.49,29.92a3.671,3.671,0,0,1-1.126-.455,7.686,7.686,0,0,0-.711-.361h0A22.993,22.993,0,0,1,7.871,27.65a25.533,25.533,0,0,1-2.813-1.979,19.261,19.261,0,0,1-2.5-2.383A12.85,12.85,0,0,1,.746,20.632,6.531,6.531,0,0,1,0,17.674V2.554L12.791,0,26.124,2.547V17.671a6.716,6.716,0,0,1-.713,2.948,13.1,13.1,0,0,1-1.751,2.657,19.274,19.274,0,0,1-2.42,2.385,25.279,25.279,0,0,1-2.727,1.983,20.99,20.99,0,0,1-2.7,1.454,12.943,12.943,0,0,1-2.366.815l-.031.006-.478.08Zm-10.819-26V17.657a4.885,4.885,0,0,0,.555,2.2l0,.006a11.367,11.367,0,0,0,1.585,2.319A18.121,18.121,0,0,0,6.1,24.362l0,0A24.084,24.084,0,0,0,8.743,26.22l0,0a21.13,21.13,0,0,0,2.573,1.346,8.123,8.123,0,0,1,.862.434,2.073,2.073,0,0,0,.648.278l.117.019.127-.019a11.51,11.51,0,0,0,2.036-.706l.01,0a19.9,19.9,0,0,0,2.5-1.344,23.988,23.988,0,0,0,2.553-1.856l0,0a17.5,17.5,0,0,0,2.209-2.18,11.5,11.5,0,0,0,1.53-2.323l0,0a5.025,5.025,0,0,0,.535-2.206V3.931L12.8,1.7Zm10.8,10.646H3.333V5.149l9.315-1.735V14.371l10.025,0s1.311,5.808-5.275,9.409a38.624,38.624,0,0,1-4.928,1.976Z" transform="translate(282 44.874)"/></g></svg>