<svg xmlns="http://www.w3.org/2000/svg" width="26.667" height="30" viewBox="0 0 26.667 30"><defs><style>.a{fill:#909399;}</style></defs><path class="a" d="M283.507,67.034c-2.028-4.181-.961-6.585.641-8.78a14.087,14.087,0,0,0,2.135-4.913,5.49,5.49,0,0,1,.854,4.39,11.361,11.361,0,0,0,2.455-8.362c5.338,3.659,7.687,11.707,4.591,17.561,4.307-2.41,6.636-5.129,7.83-8.242,2.825-7.292-4.333-15.033-5.909-16.113.747,1.568.854,4.181-.641,5.436-2.455-9.2-8.541-10.976-8.541-10.976.747,4.7-2.562,9.826-5.765,13.693a9.765,9.765,0,0,0-1.281-5.017c-.214,3.45-2.882,6.167-3.63,9.617-.961,4.7.747,8.049,7.26,11.707Zm0,0" transform="translate(-275.999 -37.034)"/></svg>