<svg xmlns="http://www.w3.org/2000/svg" xmlns:xlink="http://www.w3.org/1999/xlink" width="42" height="42" viewBox="0 0 42 42"><defs><style>.a{fill:#f5d400;}.b{clip-path:url(#a);}</style><clipPath id="a"><rect class="a" width="42" height="42"/></clipPath></defs><g transform="translate(-185 6.126)"><g class="b" transform="translate(185 -6.126)"><path class="a" d="M205.864-5.606a20.961,20.961,0,1,0,20.983,20.961A20.98,20.98,0,0,0,205.864-5.606Zm0,33.538A2.138,2.138,0,1,1,208,25.794a2.135,2.135,0,0,1-2.14,2.138Zm2.329-23.916-.441,15.26a1.676,1.676,0,0,1-1.8,1.425h-.336a1.676,1.676,0,0,1-1.8-1.425l-.462-15.26a2.185,2.185,0,0,1,2.2-2.243h.441a2.185,2.185,0,0,1,2.2,2.243Zm0,0" transform="translate(-184.886 5.633)"/></g></g></svg>