<svg xmlns="http://www.w3.org/2000/svg" xmlns:xlink="http://www.w3.org/1999/xlink" width="42" height="42" viewBox="0 0 42 42"><defs><style>.a{fill:#fff700;}.b{fill:#4a5cd5;}.c{clip-path:url(#a);}</style><clipPath id="a"><rect class="a" width="21" height="19"/></clipPath></defs><g transform="translate(-550 -1)"><g transform="translate(550 1)"><rect class="b" width="42" height="42" rx="21" transform="translate(0)"/></g><g transform="translate(559.947 13.048)"><g transform="translate(0 0)"><g class="c" transform="translate(0 0)"><path class="a" d="M-14.535,45.392a9.2,9.2,0,0,1-9.257-9.117.939.939,0,0,1,.946-.932.938.938,0,0,1,.946.932,7.32,7.32,0,0,0,7.367,7.255A7.316,7.316,0,0,0-7.17,36.275a7.319,7.319,0,0,0-7.365-7.255,7.409,7.409,0,0,0-4.144,1.256.953.953,0,0,1-1.313-.245.921.921,0,0,1,.249-1.293,9.307,9.307,0,0,1,5.208-1.577,9.2,9.2,0,0,1,9.257,9.117,9.2,9.2,0,0,1-9.257,9.115Zm0,0" transform="translate(25.802 -26.793)"/><path class="a" d="M-103.412,305.049a.7.7,0,0,1-.4-.124.691.691,0,0,1-.178-.971l1.842-2.616a.713.713,0,0,1,.986-.176.691.691,0,0,1,.178.971l-1.842,2.616a.713.713,0,0,1-.583.3Zm0,0" transform="translate(104.117 -293.911)"/></g></g><path class="a" d="M-27.133,304.431a.716.716,0,0,1-.415-.13l-2.738-1.9a.73.73,0,0,1-.184-1.017.73.73,0,0,1,1.017-.184l2.738,1.9a.73.73,0,0,1,.184,1.017.731.731,0,0,1-.6.314Zm0,0" transform="translate(32.496 -294.012)"/></g></g></svg>