<svg xmlns="http://www.w3.org/2000/svg" width="37.573" height="43.017" viewBox="0 0 37.573 43.017"><defs><style>.a{fill:#ff8206;stroke:rgba(0,0,0,0);stroke-miterlimit:10;}</style></defs><g transform="translate(-281.5 -44.364)"><path class="a" d="M17.486,41.888a5.14,5.14,0,0,1-1.577-.637,10.759,10.759,0,0,0-1-.505h-.005a32.191,32.191,0,0,1-3.889-2.036,35.747,35.747,0,0,1-3.939-2.77,26.965,26.965,0,0,1-3.5-3.336,17.99,17.99,0,0,1-2.541-3.72A9.143,9.143,0,0,1,0,24.743V3.576L17.908,0,36.573,3.565V24.739a9.4,9.4,0,0,1-1,4.127,18.345,18.345,0,0,1-2.452,3.72,26.984,26.984,0,0,1-3.388,3.339A35.39,35.39,0,0,1,25.918,38.7a29.385,29.385,0,0,1-3.786,2.036,18.12,18.12,0,0,1-3.313,1.142l-.043.009L18.109,42ZM2.34,5.494V24.72a6.839,6.839,0,0,0,.777,3.074l0,.009A15.914,15.914,0,0,0,5.34,31.05a25.369,25.369,0,0,0,3.2,3.057l.005,0a33.717,33.717,0,0,0,3.691,2.6l.005.005a29.584,29.584,0,0,0,3.6,1.885,11.373,11.373,0,0,1,1.207.608,2.9,2.9,0,0,0,.907.389l.164.027L18.3,39.6a16.114,16.114,0,0,0,2.85-.989l.014,0a27.856,27.856,0,0,0,3.5-1.881,33.584,33.584,0,0,0,3.574-2.6l.005,0a24.494,24.494,0,0,0,3.092-3.051,16.1,16.1,0,0,0,2.142-3.252l.005,0a7.035,7.035,0,0,0,.749-3.089V5.5L17.917,2.386ZM17.458,20.4H4.666V7.209L17.707,4.78V20.12l14.035-.005s1.835,8.132-7.385,13.173a54.074,54.074,0,0,1-6.9,2.767Z" transform="translate(282 44.874)"/></g></svg>