<svg xmlns="http://www.w3.org/2000/svg" width="42" height="42" viewBox="0 0 42 42"><defs><style>.a{fill:#4a5cd5;}.b{fill:#fff;}</style></defs><g transform="translate(-1040 -777.609)"><path class="a" d="M3,0H39a3,3,0,0,1,3,3V39a3,3,0,0,1-3,3H3a3,3,0,0,1-3-3V3A3,3,0,0,1,3,0Z" transform="translate(1040 777.609)"/><g transform="translate(1125 797.609)"><path class="b" d="M-72.274-8.333h-2.362V-13h2.364v4.667Zm0,8.167V15h-2.362V-.167h2.362Zm9.456,2.333h-2.364V-13h2.364Zm0,8.167V15h-2.364V10.333ZM-53.363-6h-2.364v-7h2.364Zm0,8.167V15h-2.364V2.167ZM-75.818-7.167h4.726A1.174,1.174,0,0,1-69.909-6v3.5a1.174,1.174,0,0,1-1.181,1.167h-4.727A1.175,1.175,0,0,1-77-2.5V-6a1.175,1.175,0,0,1,1.182-1.167Zm9.455,10.5h4.726A1.175,1.175,0,0,1-60.455,4.5V8a1.175,1.175,0,0,1-1.182,1.167h-4.726A1.175,1.175,0,0,1-67.545,8V4.5a1.175,1.175,0,0,1,1.182-1.167Zm9.454-8.167h4.727A1.175,1.175,0,0,1-51-3.667v3.5A1.175,1.175,0,0,1-52.182,1h-4.726A1.174,1.174,0,0,1-58.091-.167v-3.5a1.174,1.174,0,0,1,1.181-1.167Zm0,0"/></g><g transform="translate(214 12.609)"><path class="b" d="M10.5,0H21a0,0,0,0,1,0,0V21a0,0,0,0,1,0,0H10.5A10.5,10.5,0,0,1,0,10.5v0A10.5,10.5,0,0,1,10.5,0Z" transform="translate(847 786)"/><g transform="translate(850 789)"><path class="a" d="M5.953,15.995h0a8.309,8.309,0,0,1-3.365-1.942,2.96,2.96,0,0,0-.1-2.7A2.945,2.945,0,0,0,.216,9.911a8.4,8.4,0,0,1,.029-3.9,2.9,2.9,0,0,0,2.17-1.416,2.959,2.959,0,0,0,.141-2.575A8.308,8.308,0,0,1,5.911.058,2.894,2.894,0,0,0,8.162,1.18,2.9,2.9,0,0,0,10.459,0,8.3,8.3,0,0,1,13.9,1.912a2.954,2.954,0,0,0,.2,2.479,2.981,2.981,0,0,0,2.174,1.439,8.4,8.4,0,0,1,.1,3.968,2.935,2.935,0,0,0-2.2,1.434,3,3,0,0,0-.1,2.72,8.312,8.312,0,0,1-3.346,2,2.869,2.869,0,0,0-4.787.037Z" transform="translate(0 0)"/><ellipse class="b" cx="2.985" cy="2.99" rx="2.985" ry="2.99" transform="translate(5.19 4.637)"/></g></g></g></svg>