<svg xmlns="http://www.w3.org/2000/svg" xmlns:xlink="http://www.w3.org/1999/xlink" width="41.874" height="42" viewBox="0 0 41.874 42"><defs><style>.a{fill:none;}.b{clip-path:url(#a);}.c{fill:#4a5cd5;}</style><clipPath id="a"><rect class="a" width="41.874" height="42"/></clipPath></defs><g transform="translate(0 0)"><g class="b"><path class="c" d="M17.941,93.013c11.409,0,19.351-2.831,19.351-6.333v-3.8c0-3.485-7.857-6.333-19.351-6.333S-.12,79.409-.12,82.877v3.8c0,3.5,6.651,6.333,18.061,6.333Zm-1.994,11.962A13.713,13.713,0,0,1,19.3,96h-.754C8.961,96,3.549,94.085.818,91.489A2.642,2.642,0,0,0-.12,93.432v5.244c0,3.183,5.9,5.881,16.067,6.3Zm.4,4.456c-8.193-.285-13.085-2.061-15.5-4.456a2.676,2.676,0,0,0-.972,1.943v5.244c0,3.434,6.987,6.283,18.932,6.283H22.3a14.074,14.074,0,0,1-5.948-9.014ZM29.8,94.5a11.962,11.962,0,1,0,11.962,11.962A11.969,11.969,0,0,0,29.8,94.5Zm5.479,12.951-3.7,3.7a1.362,1.362,0,1,1-1.927-1.927l1.391-1.391h-5.83a1.359,1.359,0,0,1,0-2.714h5.83l-1.391-1.39a1.362,1.362,0,1,1,1.927-1.927l3.686,3.686A1.364,1.364,0,0,1,35.7,106.5a1.211,1.211,0,0,1-.419.955Zm0,0" transform="translate(0.112 -76.508)"/></g></g></svg>