<svg xmlns="http://www.w3.org/2000/svg" xmlns:xlink="http://www.w3.org/1999/xlink" width="56.305" height="42" viewBox="0 0 56.305 42"><defs><style>.a{fill:none;}.b{clip-path:url(#a);}.c{fill:#4a5cd5;}.d{fill:#fff;}</style><clipPath id="a"><rect class="a" width="56.305" height="42"/></clipPath></defs><g transform="translate(-265 -586.493)"><g transform="translate(265 586.493)"><g class="b"><path class="c" d="M89.733-3.151a3.643,3.643,0,0,0-3.357-2.455H47.84a3.744,3.744,0,0,0-3.514,2.611L39.387,17.1H94.61ZM38.88,20.589V32.822a3.517,3.517,0,0,0,3.514,3.494H91.665a3.514,3.514,0,0,0,3.514-3.491V20.6H38.88Zm49.271,8.744H81.119V25.842h7.031Zm0,0" transform="translate(-38.886 5.633)"/></g></g><g transform="translate(-546.695 -178.507)"><path class="d" d="M10.5,0H21a0,0,0,0,1,0,0V21a0,0,0,0,1,0,0H10.5A10.5,10.5,0,0,1,0,10.5v0A10.5,10.5,0,0,1,10.5,0Z" transform="translate(847 786)"/><g transform="translate(929 735)"><path class="c" d="M-77.914,60.168a.6.6,0,0,1-.194-.032.632.632,0,0,1-.391-.795A7.642,7.642,0,0,1-71.248,54a7.647,7.647,0,0,1,7.239,5.3.632.632,0,0,1-.387.8.612.612,0,0,1-.473-.034.613.613,0,0,1-.307-.361,6.413,6.413,0,0,0-6.072-4.449,6.409,6.409,0,0,0-6.082,4.48.617.617,0,0,1-.585.431Zm6.666,9.425a7.616,7.616,0,0,1-7.307-5.521.631.631,0,0,1,.41-.784.614.614,0,0,1,.472.048.614.614,0,0,1,.3.37,6.387,6.387,0,0,0,6.129,4.63,6.458,6.458,0,0,0,6.148-4.7.614.614,0,0,1,.293-.373.614.614,0,0,1,.471-.053.631.631,0,0,1,.418.78,7.7,7.7,0,0,1-7.331,5.6Zm-.818-4.57a.612.612,0,0,1-.579-.415l-1.232-3.474-.876,1.057a.61.61,0,0,1-.47.223h-4.159A.629.629,0,0,1-80,61.786a.629.629,0,0,1,.618-.629h3.873l1.379-1.664a.609.609,0,0,1,.579-.213.62.62,0,0,1,.47.4l1.182,3.331,1.105-1.676a.611.611,0,0,1,.579-.274.618.618,0,0,1,.506.4l.3.774.623-.932a.612.612,0,0,1,.509-.274h5.221a.629.629,0,0,1,.618.629.629.629,0,0,1-.618.629h-4.9l-1.1,1.643a.61.61,0,0,1-.581.27.61.61,0,0,1-.5-.4l-.292-.766-1.124,1.706a.612.612,0,0,1-.511.278Zm0,0" transform="translate(0 0)"/></g></g></g></svg>