<svg xmlns="http://www.w3.org/2000/svg" xmlns:xlink="http://www.w3.org/1999/xlink" width="42" height="42" viewBox="0 0 42 42"><defs><style>.a{fill:none;}.b{fill:#4a5cd5;}.c{fill:#fff;}.d{clip-path:url(#a);}</style><clipPath id="a"><rect class="a" width="13.328" height="14.235"/></clipPath></defs><g transform="translate(104 13)"><path class="b" d="M-70.327-2.566A28,28,0,0,0-74.337.3a2.941,2.941,0,0,0-.895-.139A2.952,2.952,0,0,0-78.187,3.11a2.933,2.933,0,0,0,.172.993,27.822,27.822,0,0,0-4.691,8.662c-.39-.34-.768-.693-1.129-1.058a23.311,23.311,0,0,1-2.75-3.31c-.033-.045-.066-.094-.1-.139a23.531,23.531,0,0,1-1.876-3.335A21.034,21.034,0,0,1-70.82-10.2a21.493,21.493,0,0,0-.144,2.481v.185a21.06,21.06,0,0,0,.636,4.967ZM-47.351,11.74c-.025.468-.062.935-.119,1.395A21.012,21.012,0,0,1-68.336,31.657,20.932,20.932,0,0,1-80.72,27.626a25.636,25.636,0,0,1-.5-2.559c.452-.021.9-.053,1.346-.1A25.811,25.811,0,0,0-71.136,22.5a2.943,2.943,0,0,0,1.814.623,2.955,2.955,0,0,0,2.791-1.981A25.86,25.86,0,0,0-50.437,14.89c.607-.521,1.186-1.07,1.744-1.645.464-.484.915-.984,1.342-1.505Zm0,0" transform="translate(-14.649 -2.657)"/><path class="b" d="M-67.081,10.481c-.6.5-1.236.976-1.888,1.419A23.57,23.57,0,0,1-72.93,14.05a23.132,23.132,0,0,1-6.805,1.723,25.991,25.991,0,0,0,5.693-7.379,20.914,20.914,0,0,0,6.961,2.088ZM-98.73,19.759c.025.791.086,1.575.177,2.346a21.224,21.224,0,0,1-1.974-2.539A20.883,20.883,0,0,1-104,8c0-.533.02-1.062.058-1.587a25.88,25.88,0,0,0,2.668,3.515,26.024,26.024,0,0,0,3.16,2.965,28.107,28.107,0,0,0-.6,4.631c-.021.431-.029.87-.029,1.3,0,.312,0,.619.016.931Zm10.979-1.9-.283.123A23.033,23.033,0,0,1-96.1,19.792c-.012-.32-.016-.64-.016-.964a25.537,25.537,0,0,1,.357-4.274,25.745,25.745,0,0,0,8.012,3.306ZM-70.734-9.062h-.1c-.312,0-.62,0-.927.016-.895.029-1.773.1-2.643.209-.3.037-.607.082-.907.131a27.681,27.681,0,0,0-7.261,2.223,18.337,18.337,0,0,1-.41-3.892A18.615,18.615,0,0,1-82.8-13a20.97,20.97,0,0,1,7.585,1.481,20.823,20.823,0,0,1,3.255,1.637c.419.258.829.533,1.227.82ZM-62.2,4.883c-.152.242-.308.484-.468.718A23.3,23.3,0,0,1-64.528,8h-.07a18.252,18.252,0,0,1-7.158-1.444c-.41-.172-.809-.361-1.2-.558a25.247,25.247,0,0,0,1.231-4.11A2.955,2.955,0,0,0-69.856-.859a2.949,2.949,0,0,0-1.313-2.457v-.168a26.772,26.772,0,0,0-.14-2.707c-.008-.078-.016-.16-.025-.238.164,0,.328,0,.493,0a25.4,25.4,0,0,1,3.312.213A20.859,20.859,0,0,1-62.2,4.883ZM-74.358,1.655a23.365,23.365,0,0,1-.878,2.961,18.484,18.484,0,0,1-2.36-2,18.278,18.278,0,0,1-3.94-5.841c-.1-.234-.193-.472-.283-.71.378-.184.759-.357,1.149-.521a25.092,25.092,0,0,1,6.723-1.8,22.843,22.843,0,0,1,.16,2.6,2.956,2.956,0,0,0-1.97,2.785,2.941,2.941,0,0,0,1.4,2.514Zm-1.954,5.406a23.493,23.493,0,0,1-1.461,2.477,23.394,23.394,0,0,1-2.848,3.449,23.055,23.055,0,0,1-2.093,1.854,2.937,2.937,0,0,0-1.26-.279,2.941,2.941,0,0,0-2.167.947,23.177,23.177,0,0,1-4.933-1.464A23.417,23.417,0,0,1-95.036,11.9c-.033-.025-.07-.049-.1-.07A24.452,24.452,0,0,1-94.133,9,24.954,24.954,0,0,1-91.8,4.706c.328-.488.677-.964,1.042-1.431a2.98,2.98,0,0,0,.878.135A2.952,2.952,0,0,0-86.926.457a2.955,2.955,0,0,0-.164-.976,24.332,24.332,0,0,1,2.122-1.6c.271-.184.546-.361.825-.533a21.024,21.024,0,0,0,7.831,9.713Zm0,0"/><path class="c" d="M10.5,0H21a0,0,0,0,1,0,0V21a0,0,0,0,1,0,0H10.5A10.5,10.5,0,0,1,0,10.5v0A10.5,10.5,0,0,1,10.5,0Z" transform="translate(-83 8)"/><g transform="translate(-63.765 12.836) rotate(90)"><g class="d" transform="translate(0 0)"><path class="b" d="M380.946,24.991l-4.54-4.54a.387.387,0,0,0-.669.277V32.314a.443.443,0,0,0,.443.443h1.775a.443.443,0,0,0,.443-.443V25.66h2.269a.387.387,0,0,0,.279-.669Zm0,0" transform="translate(-368.728 -20.323)"/><path class="b" d="M-42.112,114.524h-1.775a.443.443,0,0,0-.313.13.443.443,0,0,0-.13.314v6.655H-46.6a.387.387,0,0,0-.369.239.387.387,0,0,0,.092.43l4.54,4.54a.387.387,0,0,0,.43.092.387.387,0,0,0,.239-.369V114.967a.443.443,0,0,0-.13-.314.443.443,0,0,0-.314-.13Zm0,0" transform="translate(47 -112.737)"/></g></g></g></svg>