<svg xmlns="http://www.w3.org/2000/svg" width="42" height="42" viewBox="0 0 42 42"><defs><style>.a{fill:#4a5cd5;}</style></defs><g transform="translate(82.254 -41.786)"><g transform="translate(-82.254 41.786)"><path class="a" d="M-42.354,41.786H-51.8a1.984,1.984,0,0,0-2.1,2.1v7.35h-7.35a1.984,1.984,0,0,0-2.1,2.1v7.35H-70.7a1.984,1.984,0,0,0-2.1,2.1v7.35h-7.35a1.984,1.984,0,0,0-2.1,2.1v9.45a1.984,1.984,0,0,0,2.1,2.1h37.8a1.984,1.984,0,0,0,2.1-2.1v-37.8a1.984,1.984,0,0,0-2.1-2.1Z" transform="translate(82.254 -41.786)"/><path class="a" d="M19.615,143.655h-33.6V138.4h7.35a1.984,1.984,0,0,0,2.1-2.1v-7.35h7.35a1.984,1.984,0,0,0,2.1-2.1V119.5h7.35a1.984,1.984,0,0,0,2.1-2.1v-7.35h5.25Z" transform="translate(18.185 -105.855)"/></g><path class="a" d="M-80.154,59.426a1.984,1.984,0,0,0,2.1-2.1v-4.62h5.25a1.984,1.984,0,0,0,2.1-2.1,1.984,1.984,0,0,0-2.1-2.1h-5.25v-2.52h5.25a1.984,1.984,0,0,0,2.1-2.1,1.984,1.984,0,0,0-2.1-2.1h-7.35a1.984,1.984,0,0,0-2.1,2.1v13.44a2.1,2.1,0,0,0,2.1,2.1Z" transform="translate(0 0)"/></g></svg>