<svg xmlns="http://www.w3.org/2000/svg" width="37.532" height="43.999" viewBox="0 0 37.532 43.999"><defs><style>.a,.b{fill:#4a5cd5;}.b{stroke:#fff;stroke-width:2px;}.c{fill:#fff;}.d{stroke:none;}.e{fill:none;}</style></defs><g transform="translate(-737.527 -640.614)"><g transform="translate(-1.769)"><rect class="a" width="37.532" height="17.872" rx="3" transform="translate(739.296 651.337)"/><path class="a" d="M3,0H18.447a3,3,0,0,1,3,3V9.83a0,0,0,0,1,0,0H0a0,0,0,0,1,0,0V3A3,3,0,0,1,3,0Z" transform="translate(747.339 640.614)"/><g class="b" transform="translate(747.339 664.741)"><path class="d" d="M2,0H19.447a2,2,0,0,1,2,2V14.872a3,3,0,0,1-3,3H3a3,3,0,0,1-3-3V2A2,2,0,0,1,2,0Z"/><path class="e" d="M2-1H19.447a3,3,0,0,1,3,3V14.872a4,4,0,0,1-4,4H3a4,4,0,0,1-4-4V2A3,3,0,0,1,2-1Z"/></g><rect class="c" width="15.191" height="2.234" rx="1.117" transform="translate(750.02 669.209)"/><rect class="c" width="8.936" height="2.234" rx="1.117" transform="translate(750.02 675.464)"/><circle class="c" cx="1.787" cy="1.787" r="1.787" transform="translate(769.679 654.018)"/></g><g transform="translate(-92.941 -124.387)"><path class="c" d="M10.5,0H21a0,0,0,0,1,0,0V21a0,0,0,0,1,0,0H10.5A10.5,10.5,0,0,1,0,10.5v0A10.5,10.5,0,0,1,10.5,0Z" transform="translate(847 786)"/><g transform="translate(850 789)"><path class="a" d="M5.953,15.995h0a8.309,8.309,0,0,1-3.365-1.942,2.96,2.96,0,0,0-.1-2.7A2.945,2.945,0,0,0,.216,9.911a8.4,8.4,0,0,1,.029-3.9,2.9,2.9,0,0,0,2.17-1.416,2.959,2.959,0,0,0,.141-2.575A8.308,8.308,0,0,1,5.911.058,2.894,2.894,0,0,0,8.162,1.18,2.9,2.9,0,0,0,10.459,0,8.3,8.3,0,0,1,13.9,1.912a2.954,2.954,0,0,0,.2,2.479,2.981,2.981,0,0,0,2.174,1.439,8.4,8.4,0,0,1,.1,3.968,2.935,2.935,0,0,0-2.2,1.434,3,3,0,0,0-.1,2.72,8.312,8.312,0,0,1-3.346,2,2.869,2.869,0,0,0-4.787.037Z" transform="translate(0 0)"/><ellipse class="c" cx="2.985" cy="2.99" rx="2.985" ry="2.99" transform="translate(5.19 4.637)"/></g></g></g></svg>