<svg xmlns="http://www.w3.org/2000/svg" width="27.001" height="30.001" viewBox="0 0 27.001 30.001"><defs><style>.a{fill:#fff;}</style></defs><path class="a" d="M1,30a1,1,0,0,1-1-1V25.894a1,1,0,0,1,1-1H26a1,1,0,0,1,1,1V29a1,1,0,0,1-1,1Zm19.958-7.022a1,1,0,0,1-1-1V1a1,1,0,0,1,1-1h2.7a1,1,0,0,1,1,1V21.979a1,1,0,0,1-1,1Zm-5.87,0a1,1,0,0,1-1-1V11.851a1,1,0,0,1,1-1h2.7a1,1,0,0,1,1,1V21.979a1,1,0,0,1-1,1Zm-5.87,0a1,1,0,0,1-1-1V5.468a1,1,0,0,1,1-1h2.7a1,1,0,0,1,1,1V21.979a1,1,0,0,1-1,1Zm-5.87,0a1,1,0,0,1-1-1v-6.3a1,1,0,0,1,1-1h2.7a1,1,0,0,1,1,1v6.3a1,1,0,0,1-1,1Z"/></svg>