<svg xmlns="http://www.w3.org/2000/svg" xmlns:xlink="http://www.w3.org/1999/xlink" width="34.696" height="42" viewBox="0 0 34.696 42"><defs><style>.a{fill:none;}.b{clip-path:url(#a);}.c{fill:#4a5cd5;}</style><clipPath id="a"><rect class="a" width="34.696" height="42"/></clipPath></defs><g transform="translate(-261 2.126)"><g transform="translate(261 -2.126)"><g class="b" transform="translate(0 0)"><path class="c" d="M276.888,23.914V40.019H260.88a16.156,16.156,0,0,1,4.689-11.388,15.96,15.96,0,0,1,11.32-4.717Zm0-2.014a11.968,11.968,0,0,1-8.491-3.537,12.114,12.114,0,0,1-3.516-8.542A12.007,12.007,0,1,1,276.888,21.9Zm8.949.851a8.285,8.285,0,0,1,3.447,0,3.382,3.382,0,0,0,1.644,2.429,3.344,3.344,0,0,0,2.914.218,8.431,8.431,0,0,1,1.721,3,3.395,3.395,0,0,0,0,5.293,8.523,8.523,0,0,1-1.724,3,3.345,3.345,0,0,0-2.912.217,3.383,3.383,0,0,0-1.645,2.427,8.383,8.383,0,0,1-3.447.005,3.383,3.383,0,0,0-1.643-2.431,3.345,3.345,0,0,0-2.915-.219,8.475,8.475,0,0,1-1.721-3.006,3.4,3.4,0,0,0,0-5.294,8.519,8.519,0,0,1,1.724-3,3.344,3.344,0,0,0,2.913-.218,3.382,3.382,0,0,0,1.644-2.429Zm1.724,10.839a2.564,2.564,0,0,0,2.393-1.544,2.527,2.527,0,0,0-.532-2.782,2.578,2.578,0,0,0-2.8-.567,2.539,2.539,0,0,0,.936,4.893Zm0,0" transform="translate(-260.886 1.931)"/></g></g></g></svg>