<svg xmlns="http://www.w3.org/2000/svg" width="30" height="30" viewBox="0 0 30 30"><defs><style>.a{fill:#fff700;}</style></defs><g transform="translate(0 0)"><path class="a" d="M-77.381-.225l-4.1-4.1-1.853-1.855-3.462-3.465,2.486-2.489A2.95,2.95,0,0,1-82.217-13a2.95,2.95,0,0,1,2.088.867l5.219,5.221a2.956,2.956,0,0,1,.866,2.09,2.956,2.956,0,0,1-.866,2.09Zm-2.1,2.1L-93.731,16.137a2.948,2.948,0,0,1-2.1.863h-6.7A1.484,1.484,0,0,1-104,15.521v-6.7a3,3,0,0,1,.859-2.1l9.458-9.453,4.81-4.815ZM-91,16.934l3.69-3.691h11.458a1.852,1.852,0,0,1,1.6.927,1.856,1.856,0,0,1,0,1.854,1.852,1.852,0,0,1-1.6.927H-91Zm5.915-5.921,3.693-3.691h5.54a1.853,1.853,0,0,1,1.6.927,1.856,1.856,0,0,1,0,1.854,1.852,1.852,0,0,1-1.6.927h-9.233Zm0,0" transform="translate(104 13)"/></g></svg>