<svg xmlns="http://www.w3.org/2000/svg" xmlns:xlink="http://www.w3.org/1999/xlink" width="56.305" height="42" viewBox="0 0 56.305 42"><defs><style>.a{fill:none;}.b{clip-path:url(#a);}.c{fill:#4a5cd5;}.d{fill:#fff;}</style><clipPath id="a"><rect class="a" width="56.305" height="42"/></clipPath></defs><g transform="translate(-265 -586.493)"><g transform="translate(265 586.493)"><g class="b"><path class="c" d="M89.733-3.151a3.643,3.643,0,0,0-3.357-2.455H47.84a3.744,3.744,0,0,0-3.514,2.611L39.387,17.1H94.61ZM38.88,20.589V32.822a3.517,3.517,0,0,0,3.514,3.494H91.665a3.514,3.514,0,0,0,3.514-3.491V20.6H38.88Zm49.271,8.744H81.119V25.842h7.031Zm0,0" transform="translate(-38.886 5.633)"/></g></g><g transform="translate(-546.848 -178.507)"><path class="d" d="M10.5,0H21a0,0,0,0,1,0,0V21a0,0,0,0,1,0,0H10.5A10.5,10.5,0,0,1,0,10.5v0A10.5,10.5,0,0,1,10.5,0Z" transform="translate(847 786)"/><g transform="translate(850 789)"><path class="c" d="M5.953,15.995h0a8.309,8.309,0,0,1-3.365-1.942,2.96,2.96,0,0,0-.1-2.7A2.945,2.945,0,0,0,.216,9.911a8.4,8.4,0,0,1,.029-3.9,2.9,2.9,0,0,0,2.17-1.416,2.959,2.959,0,0,0,.141-2.575A8.308,8.308,0,0,1,5.911.058,2.894,2.894,0,0,0,8.162,1.18,2.9,2.9,0,0,0,10.459,0,8.3,8.3,0,0,1,13.9,1.912a2.954,2.954,0,0,0,.2,2.479,2.981,2.981,0,0,0,2.174,1.439,8.4,8.4,0,0,1,.1,3.968,2.935,2.935,0,0,0-2.2,1.434,3,3,0,0,0-.1,2.72,8.312,8.312,0,0,1-3.346,2,2.869,2.869,0,0,0-4.787.037Z" transform="translate(0 0)"/><ellipse class="d" cx="2.985" cy="2.99" rx="2.985" ry="2.99" transform="translate(5.19 4.637)"/></g></g></g></svg>