<svg xmlns="http://www.w3.org/2000/svg" xmlns:xlink="http://www.w3.org/1999/xlink" width="45.985" height="42" viewBox="0 0 45.985 42"><defs><style>.a{fill:none;}.b{clip-path:url(#a);}.c{fill:#4a5cd5;}</style><clipPath id="a"><rect class="a" width="45.985" height="42"/></clipPath></defs><g transform="translate(-11 -127)"><g class="b" transform="translate(11 127)"><path class="c" d="M34.467,148.014a4.293,4.293,0,0,1-1.457-.249l-18.958-6.7a3.482,3.482,0,0,1,0-6.705l18.958-6.705a4.422,4.422,0,0,1,2.913,0l18.958,6.705a3.482,3.482,0,0,1,0,6.705l-18.958,6.7a4.292,4.292,0,0,1-1.457.249Zm0,0" transform="translate(-11.472 -127.371)"/><path class="c" d="M54.41,340.651,51.416,339.6l-5.607,2,6.875,2.4-18.688,6.6L15.307,344l6.845-2.415-5.618-2-2.993,1.048a3.482,3.482,0,0,0,0,6.705l18.958,6.7a4.379,4.379,0,0,0,2.913,0l18.958-6.7a3.482,3.482,0,0,0,0-6.705Zm0,0" transform="translate(-11 -323.021)"/><path class="c" d="M54.763,477.228l-2.994-1.048-5.607,2L53,480.591l-18.649,6.585-18.658-6.6,6.845-2.415-5.617-2-2.993,1.047a3.482,3.482,0,0,0,0,6.705l18.958,6.705a4.381,4.381,0,0,0,2.914,0l18.958-6.705a3.482,3.482,0,0,0,0-6.705Zm0,0" transform="translate(-11.353 -448.953)"/></g></g></svg>