<svg xmlns="http://www.w3.org/2000/svg" xmlns:xlink="http://www.w3.org/1999/xlink" width="30" height="30" viewBox="0 0 30 30"><defs><style>.a{fill:none;}.b{clip-path:url(#a);}.c{fill:#fff;}</style><clipPath id="a"><rect class="a" width="30" height="30"/></clipPath></defs><g transform="translate(0 0)"><g transform="translate(0 0)"><g class="b"><path class="c" d="M271.208,88.327h-4.56a4.748,4.748,0,0,0-4.769,4.751v4.539a4.812,4.812,0,0,0,4.769,4.748h4.563a4.748,4.748,0,0,0,4.769-4.748V93.078a4.748,4.748,0,0,0-4.773-4.751Zm15.866-15.894h-4.563a4.748,4.748,0,0,0-4.769,4.751v4.542a4.748,4.748,0,0,0,4.769,4.748h4.563a4.77,4.77,0,0,0,3.375-1.384,4.722,4.722,0,0,0,1.394-3.36V77.187a4.754,4.754,0,0,0-4.769-4.755Zm0,15.894h-4.459a6.089,6.089,0,0,1-6.632-6.6V77.288a4.831,4.831,0,0,0-4.769-4.849h-4.567a4.807,4.807,0,0,0-4.769,4.744v4.542a4.711,4.711,0,0,0,1.393,3.36,4.77,4.77,0,0,0,3.376,1.384h4.458a6.091,6.091,0,0,1,6.635,6.608v4.434a4.71,4.71,0,0,0,1.394,3.36,4.77,4.77,0,0,0,3.375,1.384h4.567a4.742,4.742,0,0,0,4.769-4.744V93.078a4.626,4.626,0,0,0-4.773-4.751Zm0,0" transform="translate(-261.885 -72.407)"/></g></g></g></svg>