<svg xmlns="http://www.w3.org/2000/svg" width="37.213" height="42" viewBox="0 0 37.213 42"><defs><style>.a{fill:#4a5cd5;}</style></defs><path class="a" d="M17.606,50C11.134,54.584-1,54.584-1,54.584V72.146C-1,85.892,12.4,90.626,17.606,92c5.205-1.374,18.606-6.108,18.606-19.854V54.589s-12.134,0-18.606-4.589ZM16.077,77.307l-.019.019-3.841,3.807a2.667,2.667,0,0,1-1.923.8,2.767,2.767,0,0,1-1.932-.786,2.707,2.707,0,0,1,0-3.826l0,0L12.207,73.5a.692.692,0,0,1,.981,0c.267.257,2.869,2.85,2.869,2.85a.675.675,0,0,1,.019.957Zm10.968,3.845a2.83,2.83,0,0,1-1.932.777,2.7,2.7,0,0,1-1.932-.8l-10.036-10a5.928,5.928,0,0,1-1.457.2,5.472,5.472,0,0,1-5.5-5.448,5.4,5.4,0,0,1,.267-1.709.681.681,0,0,1,.5-.456.714.714,0,0,1,.651.18L9.925,66.2a1.029,1.029,0,0,0,1.457,0l.66-.656a1.02,1.02,0,0,0,0-1.442l0,0L9.735,61.784a.689.689,0,0,1,0-.971.634.634,0,0,1,.272-.165,5.575,5.575,0,0,1,5.589,1.34,5.493,5.493,0,0,1,1.413,5.331l10.036,10a2.714,2.714,0,0,1,0,3.836Zm1.913-14.746L27.7,70.17a1.114,1.114,0,0,1-.306.539,1.16,1.16,0,0,1-.845.35v0a1.194,1.194,0,0,1-.845-.345l-.01-.01-1.476-1.461-1.19,1.175a.692.692,0,0,1-.981,0c-.267-.257-2.86-2.845-2.86-2.845l0,0a.674.674,0,0,1-.019-.952l.019-.019,1.189-1.18-.772-.767a1.174,1.174,0,0,1,0-1.661l0,0,2.588-2.559a1.193,1.193,0,0,1,1.68,0L28.672,65.2a1.153,1.153,0,0,1,.287,1.2Zm0,0" transform="translate(1 -50)"/></svg>