<svg xmlns="http://www.w3.org/2000/svg" xmlns:xlink="http://www.w3.org/1999/xlink" width="964" height="222.916" viewBox="0 0 964 222.916"><defs><style>.a{fill:#fff;}.b,.c{stroke:none;}.c{fill:#4a5cd5;}.d{filter:url(#a);}</style><filter id="a" x="0" y="0" width="964" height="222.916" filterUnits="userSpaceOnUse"><feOffset input="SourceAlpha"/><feGaussianBlur stdDeviation="10" result="b"/><feFlood flood-opacity="0.161"/><feComposite operator="in" in2="b"/><feComposite in="SourceGraphic"/></filter></defs><g class="d" transform="matrix(1, 0, 0, 1, 0, 0)"><g class="a" transform="translate(2020 3612)"><path class="b" d="M -1563.61376953125 -3420.083740234375 C -1563.799560546875 -3420.083740234375 -1564.076904296875 -3420.126220703125 -1564.343383789062 -3420.32861328125 L -1593.938598632812 -3442.796142578125 L -1594.206665039062 -3442.999755859375 L -1594.543212890625 -3442.999755859375 L -1985.00048828125 -3442.999755859375 C -1987.205810546875 -3442.999755859375 -1989 -3444.794189453125 -1989 -3447 L -1989 -3576.999755859375 C -1989 -3579.20556640625 -1987.205810546875 -3581 -1985.00048828125 -3581 L -1090.999877929688 -3581 C -1088.794555664062 -3581 -1087.000366210938 -3579.20556640625 -1087.000366210938 -3576.999755859375 L -1087.000366210938 -3447 C -1087.000366210938 -3444.794189453125 -1088.794555664062 -3442.999755859375 -1090.999877929688 -3442.999755859375 L -1558.676879882812 -3442.999755859375 L -1559.552856445312 -3442.999755859375 L -1559.668212890625 -3442.13134765625 L -1562.479614257812 -3420.970458984375 C -1562.55615234375 -3420.39453125 -1563.12109375 -3420.083740234375 -1563.61376953125 -3420.083740234375 Z"/><path class="c" d="M -1563.61376953125 -3421.083740234375 C -1563.54931640625 -3421.083740234375 -1563.493896484375 -3421.107666015625 -1563.467651367188 -3421.1259765625 L -1560.428833007812 -3443.999755859375 L -1090.999877929688 -3443.999755859375 C -1089.345947265625 -3443.999755859375 -1088.000366210938 -3445.345703125 -1088.000366210938 -3447 L -1088.000366210938 -3576.999755859375 C -1088.000366210938 -3578.654052734375 -1089.345947265625 -3580 -1090.999877929688 -3580 L -1985.00048828125 -3580 C -1986.654418945312 -3580 -1988 -3578.654052734375 -1988 -3576.999755859375 L -1988 -3447 C -1988 -3445.345703125 -1986.654418945312 -3443.999755859375 -1985.00048828125 -3443.999755859375 L -1593.8701171875 -3443.999755859375 L -1593.333862304688 -3443.5927734375 L -1563.73876953125 -3421.125 C -1563.713500976562 -3421.105712890625 -1563.676513671875 -3421.083740234375 -1563.61376953125 -3421.083740234375 M -1563.61376953125 -3419.083740234375 C -1564.073364257812 -3419.083740234375 -1564.542114257812 -3419.223876953125 -1564.947998046875 -3419.531982421875 L -1594.543212890625 -3441.999755859375 L -1985.00048828125 -3441.999755859375 C -1987.761596679688 -3441.999755859375 -1990 -3444.23876953125 -1990 -3447 L -1990 -3576.999755859375 C -1990 -3579.76171875 -1987.761596679688 -3582 -1985.00048828125 -3582 L -1090.999877929688 -3582 C -1088.238647460938 -3582 -1086.000366210938 -3579.76171875 -1086.000366210938 -3576.999755859375 L -1086.000366210938 -3447 C -1086.000366210938 -3444.23876953125 -1088.238647460938 -3441.999755859375 -1090.999877929688 -3441.999755859375 L -1558.676879882812 -3441.999755859375 L -1561.48828125 -3420.8388671875 C -1561.630737304688 -3419.767333984375 -1562.599487304688 -3419.083740234375 -1563.61376953125 -3419.083740234375 Z"/></g></g></svg>