<svg xmlns="http://www.w3.org/2000/svg" xmlns:xlink="http://www.w3.org/1999/xlink" width="770" height="222.916" viewBox="0 0 770 222.916"><defs><style>.a{fill:#fff;}.b,.c{stroke:none;}.c{fill:#4a5cd5;}.d{filter:url(#a);}</style><filter id="a" x="0" y="0" width="770" height="222.916" filterUnits="userSpaceOnUse"><feOffset input="SourceAlpha"/><feGaussianBlur stdDeviation="10" result="b"/><feFlood flood-opacity="0.161"/><feComposite operator="in" in2="b"/><feComposite in="SourceGraphic"/></filter></defs><g class="d" transform="matrix(1, 0, 0, 1, 0, 0)"><g class="a" transform="translate(2020 3612)"><path class="b" d="M -1587.499267578125 -3420.083740234375 C -1587.684936523438 -3420.083740234375 -1587.962036132812 -3420.126220703125 -1588.228149414062 -3420.328369140625 L -1617.82373046875 -3442.796142578125 L -1618.091796875 -3442.999755859375 L -1618.428344726562 -3442.999755859375 L -1985.00048828125 -3442.999755859375 C -1987.205810546875 -3442.999755859375 -1989 -3444.794189453125 -1989 -3447 L -1989 -3576.999755859375 C -1989 -3579.20556640625 -1987.205810546875 -3581 -1985.00048828125 -3581 L -1285.000244140625 -3581 C -1282.79443359375 -3581 -1280.999877929688 -3579.20556640625 -1280.999877929688 -3576.999755859375 L -1280.999877929688 -3447 C -1280.999877929688 -3444.794189453125 -1282.79443359375 -3442.999755859375 -1285.000244140625 -3442.999755859375 L -1582.562255859375 -3442.999755859375 L -1583.438232421875 -3442.999755859375 L -1583.553588867188 -3442.13134765625 L -1586.36474609375 -3420.970703125 C -1586.44140625 -3420.39453125 -1587.006469726562 -3420.083740234375 -1587.499267578125 -3420.083740234375 Z"/><path class="c" d="M -1587.499267578125 -3421.083740234375 C -1587.434692382812 -3421.083740234375 -1587.379150390625 -3421.107666015625 -1587.352905273438 -3421.1259765625 L -1584.314208984375 -3443.999755859375 L -1285.000244140625 -3443.999755859375 C -1283.345947265625 -3443.999755859375 -1281.999877929688 -3445.345703125 -1281.999877929688 -3447 L -1281.999877929688 -3576.999755859375 C -1281.999877929688 -3578.654052734375 -1283.345947265625 -3580 -1285.000244140625 -3580 L -1985.00048828125 -3580 C -1986.654418945312 -3580 -1988 -3578.654052734375 -1988 -3576.999755859375 L -1988 -3447 C -1988 -3445.345703125 -1986.654418945312 -3443.999755859375 -1985.00048828125 -3443.999755859375 L -1617.755126953125 -3443.999755859375 L -1587.623168945312 -3421.12451171875 C -1587.59814453125 -3421.10546875 -1587.561401367188 -3421.083740234375 -1587.499267578125 -3421.083740234375 M -1587.499267578125 -3419.083740234375 C -1587.958862304688 -3419.083740234375 -1588.427490234375 -3419.223876953125 -1588.8330078125 -3419.531982421875 L -1618.428344726562 -3441.999755859375 L -1985.00048828125 -3441.999755859375 C -1987.761596679688 -3441.999755859375 -1990 -3444.23876953125 -1990 -3447 L -1990 -3576.999755859375 C -1990 -3579.76171875 -1987.761596679688 -3582 -1985.00048828125 -3582 L -1285.000244140625 -3582 C -1282.238159179688 -3582 -1279.999877929688 -3579.76171875 -1279.999877929688 -3576.999755859375 L -1279.999877929688 -3447 C -1279.999877929688 -3444.23876953125 -1282.238159179688 -3441.999755859375 -1285.000244140625 -3441.999755859375 L -1582.562255859375 -3441.999755859375 L -1585.373413085938 -3420.8388671875 C -1585.515869140625 -3419.767333984375 -1586.484985351562 -3419.083740234375 -1587.499267578125 -3419.083740234375 Z"/></g></g></svg>