<svg xmlns="http://www.w3.org/2000/svg" width="32" height="30" viewBox="0 0 32 30"><defs><style>.a{fill:#fff700;}</style></defs><g transform="translate(0)"><path class="a" d="M-88.238-1.44a5.622,5.622,0,0,1-4.524-2.844,5.442,5.442,0,0,1-.189-5.229,15.391,15.391,0,0,0-6.126-3.395,5.68,5.68,0,0,1-4.712,2.385A5.418,5.418,0,0,1-108.5-13a15.644,15.644,0,0,0-6.315,3.578A5.7,5.7,0,0,1-115-4.193a5.936,5.936,0,0,1-4.524,2.844A9.885,9.885,0,0,0-120,2.046a12.948,12.948,0,0,0,.377,3.395A5.621,5.621,0,0,1-115.1,8.284a5.209,5.209,0,0,1,.189,5.229A16.791,16.791,0,0,0-108.785,17a5.76,5.76,0,0,1,4.712-2.477A5.418,5.418,0,0,1-99.36,17a13.986,13.986,0,0,0,6.126-3.486,5.7,5.7,0,0,1,.189-5.229A5.935,5.935,0,0,1-88.521,5.44a13.889,13.889,0,0,0,.377-3.395,8.65,8.65,0,0,0-.094-3.486Zm-15.74,9.082a5.638,5.638,0,0,1-5.749-5.6,5.638,5.638,0,0,1,5.749-5.6,5.638,5.638,0,0,1,5.749,5.6,5.58,5.58,0,0,1-5.749,5.6Zm0,0" transform="translate(120 13)"/></g></svg>