<svg xmlns="http://www.w3.org/2000/svg" width="55.793" height="43.997" viewBox="0 0 55.793 43.997"><defs><style>.a,.b{fill:#4a5cd5;}.b{stroke:#fff;stroke-miterlimit:10;stroke-width:2px;}</style></defs><g transform="translate(-162.585 -413.255)"><g transform="translate(166.585 418.642)"><path class="a" d="M191.674,131.024A10.437,10.437,0,1,1,202.1,141.107a10.272,10.272,0,0,1-10.431-10.083ZM183,157.05a19.186,19.186,0,0,1,10.742-15.7,13.8,13.8,0,0,0,8.363,2.806c3.172,0,18.877,10.351,19.1,12.9-.055.052-38.155,0-38.21,0Zm0,0" transform="translate(-187 -122.941)"/></g><g transform="translate(174.576 414.255)"><path class="b" d="M-111.3,8.721A11.7,11.7,0,0,1-99.644-3,11.7,11.7,0,0,1-87.984,8.721a11.7,11.7,0,0,1-11.66,11.72A11.7,11.7,0,0,1-111.3,8.721ZM-121,38.972a22.41,22.41,0,0,1,12.008-18.255,15.042,15.042,0,0,0,9.349,3.262,15.043,15.043,0,0,0,9.392-3.3A22.1,22.1,0,0,1-78.287,38.972c-.062.06-42.651,0-42.713,0Zm0,0" transform="translate(121 3)"/></g></g></svg>