<svg xmlns="http://www.w3.org/2000/svg" xmlns:xlink="http://www.w3.org/1999/xlink" width="15.695" height="16.024" viewBox="0 0 15.695 16.024"><defs><style>.a{fill:none;}.b{clip-path:url(#a);}.c{fill:#39ffd0;}.d{fill:#ffc043;}</style><clipPath id="a"><rect class="a" width="15.695" height="16.024"/></clipPath></defs><g transform="translate(-19 -104)"><g transform="translate(19 104)"><g class="b" transform="translate(0 0)"><path class="c" d="M31.975,109.357a5.117,5.117,0,1,0-8.113,4.13,8,8,0,0,0-4.848,5.8.786.786,0,0,0,.606.92.356.356,0,0,0,.157.022.77.77,0,0,0,.763-.628,6.485,6.485,0,0,1,2.211-3.658,6.286,6.286,0,0,1,1.885-1.077,6.416,6.416,0,0,1,2.211-.393c.034,0,.056-.011.09-.011a5.133,5.133,0,0,0,5.039-5.106Zm-7.62-2.514a3.54,3.54,0,0,1,1.133-.763,3.535,3.535,0,0,1,2.761,0,3.666,3.666,0,0,1,1.133.763,3.541,3.541,0,0,1,.763,1.133,3.536,3.536,0,0,1,0,2.761,3.669,3.669,0,0,1-.763,1.133,3.553,3.553,0,0,1-5.027,0,3.561,3.561,0,0,1-1.044-2.514,3.413,3.413,0,0,1,.28-1.38,3.543,3.543,0,0,1,.763-1.133Zm0,0" transform="translate(-18.999 -104.233)"/></g></g><path class="d" d="M330.155,446.106l.079.079h-3.961a.752.752,0,0,0,0,1.5h5.779a.845.845,0,0,0,.292-.056l.067-.034.045-.022a.353.353,0,0,0,.135-.1.7.7,0,0,0,.123-.191v-.011a.058.058,0,0,0,.022-.045.752.752,0,0,0,0-.584.243.243,0,0,0-.056-.09l-.022-.034v-.011l-.011-.023a.267.267,0,0,0-.067-.09l-1.358-1.358a.754.754,0,0,0-1.066,1.066Zm1.9,2.48h-5.779a.741.741,0,0,0-.516.213l-.011.011a.1.1,0,0,0-.034.056l-.011.023a1.089,1.089,0,0,0-.112.168.8.8,0,0,0-.056.236c0,.011-.011.022-.011.045a.846.846,0,0,0,.056.292.156.156,0,0,0,.034.045l.022.034a.508.508,0,0,0,.112.157l1.358,1.358a.745.745,0,0,0,.539.213.755.755,0,0,0,.539-1.291l-.079-.079h3.961a.752.752,0,0,0,.752-.752.743.743,0,0,0-.763-.729Zm0,0" transform="translate(-298.122 -331.484)"/></g></svg>