<svg xmlns="http://www.w3.org/2000/svg" width="42" height="42" viewBox="0 0 42 42"><defs><style>.a{fill:#78a9ff;}.b{fill:#fff;}</style></defs><g transform="translate(224.429 25)"><g transform="translate(-212 -13)"><circle class="a" cx="21" cy="21" r="21" transform="translate(-12.429 -12)"/><path class="b" d="M-208.625-8.733l1.05-1.086L-194.3,3.914-195.351,5l-2.737-2.832H-207.5V1.276l1.575-1.785V-5.4c0-.193.038-.349.038-.5l-2.738-2.831Zm16.011,1.862a4.324,4.324,0,0,1,.975,2.793,4.322,4.322,0,0,1-.975,2.793l-.638-.776a3.058,3.058,0,0,0,.713-2.018,3.055,3.055,0,0,0-.713-2.017Zm1.5-1.861A7.18,7.18,0,0,1-189.5-4.077,7.4,7.4,0,0,1-191.113.578l-.638-.776a6.041,6.041,0,0,0,1.35-3.88,6.04,6.04,0,0,0-1.35-3.879Zm-4.463,3.3V-.509L-194,1.276v.777L-204.763-9.082a5.359,5.359,0,0,1,2.813-1.939v-.621A1.312,1.312,0,0,1-200.75-13a1.3,1.3,0,0,1,1.2,1.319v.621a5.63,5.63,0,0,1,3.974,5.624Zm-13.311-1.435.638.777a3.055,3.055,0,0,0-.713,2.017,3.056,3.056,0,0,0,.713,2.018l-.638.776a4.323,4.323,0,0,1-.975-2.793,4.325,4.325,0,0,1,.975-2.793Zm-.9-1.086A6.017,6.017,0,0,0-211.1-4.078a6.041,6.041,0,0,0,1.35,3.88l-.638.776A7.181,7.181,0,0,1-212-4.078a7.373,7.373,0,0,1,1.575-4.655Zm9.037,12.8a1.761,1.761,0,0,1-1.613-1.784h3.188a2.1,2.1,0,0,1-.15.7,1.478,1.478,0,0,1-1.125,1.086Zm0,0" transform="translate(209.571 13)"/></g></g></svg>