<svg xmlns="http://www.w3.org/2000/svg" xmlns:xlink="http://www.w3.org/1999/xlink" width="42" height="42" viewBox="0 0 42 42"><defs><style>.a{fill:none;}.b{fill:#78a9ff;}.c{clip-path:url(#a);}.d{fill:#fff;}</style><clipPath id="a"><rect class="a" width="19.125" height="18"/></clipPath></defs><g transform="translate(109.625 -7)"><g transform="translate(-109.625 7)"><circle class="b" cx="21" cy="21" r="21" transform="translate(0 0)"/><g class="c" transform="translate(11 12)"><path class="d" d="M-98.826,18.251h7.68a7.275,7.275,0,0,1,7.266,7.282,7.275,7.275,0,0,1-7.266,7.283h-9.686a1.2,1.2,0,0,1-.855-.355,1.22,1.22,0,0,1-.355-.86,1.213,1.213,0,0,1,1.211-1.213h9.686a4.818,4.818,0,0,0,3.421-1.418A4.88,4.88,0,0,0-86.3,25.533a4.849,4.849,0,0,0-4.844-4.854h-7.764l1.4,1.4a1.216,1.216,0,0,1,.331,1.183,1.207,1.207,0,0,1-.867.865,1.208,1.208,0,0,1-1.177-.332l-3.42-3.432a1.216,1.216,0,0,1-.354-.859,1.216,1.216,0,0,1,.354-.859l3.42-3.434a1.209,1.209,0,0,1,1.714,0,1.216,1.216,0,0,1,0,1.716l-1.315,1.319Zm0,0" transform="translate(103 -14.839)"/></g></g></g></svg>