<svg xmlns="http://www.w3.org/2000/svg" width="37.999" height="45.999" viewBox="0 0 37.999 45.999"><defs><style>.a{fill:#fff;}</style></defs><path class="a" d="M22.652,54.676a4.049,4.049,0,0,1-2.323-2.291A4.666,4.666,0,0,1,20,50.6a4.506,4.506,0,0,1,.347-1.8,4.01,4.01,0,0,1,.953-1.369,4.216,4.216,0,0,1,1.429-.869,5.088,5.088,0,0,1,1.787-.305,4.835,4.835,0,0,1,.836.076,4.288,4.288,0,0,1,.835.235,4.1,4.1,0,0,1,.752.394,2.411,2.411,0,0,1,.6.564l-1.129.893a1.9,1.9,0,0,0-.858-.652,2.89,2.89,0,0,0-2.211.029,2.766,2.766,0,0,0-.912.646,2.876,2.876,0,0,0-.588.964,3.4,3.4,0,0,0-.206,1.2,3.7,3.7,0,0,0,.2,1.246,2.8,2.8,0,0,0,.57.97,2.56,2.56,0,0,0,.888.629,2.912,2.912,0,0,0,1.165.223,2.581,2.581,0,0,0,1.188-.264,2.324,2.324,0,0,0,.835-.7l1.188.835a3.807,3.807,0,0,1-1.353,1.075,4.3,4.3,0,0,1-1.87.382A4.837,4.837,0,0,1,22.652,54.676Zm29.619.112v-8.32h5.516V47.76H53.753v2.116h3.822v1.246H53.753v2.35H58v1.316Zm-2.317,0-1.929-3.526H46.943v3.526H45.461v-8.32h2.893a5.188,5.188,0,0,1,1.14.124,2.943,2.943,0,0,1,.982.4,2.125,2.125,0,0,1,.688.74,2.245,2.245,0,0,1,.258,1.117,2.124,2.124,0,0,1-.511,1.475,2.575,2.575,0,0,1-1.394.77l2.223,3.69Zm-3.011-4.736h1.212A4.269,4.269,0,0,0,48.79,50a1.84,1.84,0,0,0,.57-.176,1.113,1.113,0,0,0,.417-.37,1.073,1.073,0,0,0,.165-.617.949.949,0,0,0-.153-.558,1.144,1.144,0,0,0-.388-.347,1.646,1.646,0,0,0-.535-.176,3.772,3.772,0,0,0-.582-.047H46.943ZM36.582,54.787v-8.32h5.375V47.76H38.064v2.28h3.669v1.246H38.064v3.5Zm-3.128,0L29.5,48.359h-.024v6.428H28v-8.32h1.964L33.831,52.7h.024V46.467h1.482v8.32Zm9.28,0v-8.32h1.481v8.32ZM37.423,39.6c-7.421-.98-11.75-8.5-8.047-17.3a13.44,13.44,0,0,1,2.53-3.785,10.361,10.361,0,0,0,1.385,3.757c1.416,2.711,5.484,6.341,4.819,12.018,0,0-1.286-3.728-3.378-5.635-2.051-1.87-2.77-2.048-2.77-2.048a6.72,6.72,0,0,0,.127,5.4,7.385,7.385,0,0,0,10.045,3.653c5.875-3.337,3.627-9.527,3.053-10.94-.98-2.411-.791-1.9-3.467-5.612A14.27,14.27,0,0,1,39.2,9a13.993,13.993,0,0,0,3.274,6.176c3.541,3.695,6.351,6.308,6.935,12.315.553,5.685-3.977,12.2-10.614,12.2A10.471,10.471,0,0,1,37.423,39.6Zm1.564-12.625c-1.564-2.768-5.265-6.119-5.243-9.886A8.608,8.608,0,0,1,37.39,10a7.752,7.752,0,0,0-.118,5.306c.6,2.183,3.419,3.617,5.064,8.041a10.51,10.51,0,0,1-2.36,10.8A10.881,10.881,0,0,0,38.986,26.978Z" transform="translate(-20 -9)"/></svg>