<svg xmlns="http://www.w3.org/2000/svg" xmlns:xlink="http://www.w3.org/1999/xlink" width="36.75" height="42" viewBox="0 0 36.75 42"><defs><style>.a{fill:none;}.b{clip-path:url(#a);}.c{fill:#4a5cd5;}</style><clipPath id="a"><rect class="a" width="36.75" height="42"/></clipPath></defs><g transform="translate(-262 6.126)"><g class="b" transform="translate(262 -6.126)"><path class="c" d="M294.539,9.8h-.118a4.214,4.214,0,0,0-2.142.586,4.038,4.038,0,0,0-3.887-2.612,4.619,4.619,0,0,0-2.26.586,4.068,4.068,0,0,0-3.887-2.612,4.491,4.491,0,0,0-2,.45V2.278A3.631,3.631,0,0,0,279.07-.447a4.249,4.249,0,0,0-2.927-1.126,4.073,4.073,0,0,0-4.239,3.85v13.4a.661.661,0,0,1-.423.611.759.759,0,0,1-.774-.116l-1.39-1.266a4.825,4.825,0,0,0-6.005,0,3.879,3.879,0,0,0-.306,5.741c1.881,2.409,7.726,10.02,9.044,11.555,3.651,4.255,8.36,3.957,13.519,3.957,11.97,0,13.071-7.521,13.071-14.816V13.649a3.645,3.645,0,0,0-1.179-2.722A4.264,4.264,0,0,0,294.536,9.8m-24.3-4.774a1.765,1.765,0,0,0-.142-.7,5.268,5.268,0,0,1-.424-2.072,6.434,6.434,0,0,1,12.813,0,3.158,3.158,0,0,1-.024.475.863.863,0,0,0,.66.923h.024a1.3,1.3,0,0,0,1.038-.163,1.115,1.115,0,0,0,.516-.85c0-.135.024-.247.024-.383a8,8,0,0,0-5.368-7.434A9.12,9.12,0,0,0,269.9-3.332a7.541,7.541,0,0,0-1.666,8.808,1.076,1.076,0,0,0,1.2.538.986.986,0,0,0,.8-.987Zm0,0" transform="translate(-261.887 5.786)"/></g></g></svg>