<svg xmlns="http://www.w3.org/2000/svg" width="42" height="42" viewBox="0 0 42 42"><defs><style>.a{fill:#4a5cd5;}.b{fill:#fff;}</style></defs><g transform="translate(-1040 -777.609)"><rect class="a" width="42" height="42" rx="3" transform="translate(1040 777.609)"/><path class="b" d="M-72.274-8.333h-2.362V-13h2.364v4.667Zm0,8.167V15h-2.362V-.167h2.362Zm9.456,2.333h-2.364V-13h2.364Zm0,8.167V15h-2.364V10.333ZM-53.363-6h-2.364v-7h2.364Zm0,8.167V15h-2.364V2.167ZM-75.818-7.167h4.726A1.174,1.174,0,0,1-69.909-6v3.5a1.174,1.174,0,0,1-1.181,1.167h-4.727A1.175,1.175,0,0,1-77-2.5V-6a1.175,1.175,0,0,1,1.182-1.167Zm9.455,10.5h4.726A1.175,1.175,0,0,1-60.455,4.5V8a1.175,1.175,0,0,1-1.182,1.167h-4.726A1.175,1.175,0,0,1-67.545,8V4.5a1.175,1.175,0,0,1,1.182-1.167Zm9.454-8.167h4.727A1.175,1.175,0,0,1-51-3.667v3.5A1.175,1.175,0,0,1-52.182,1h-4.726A1.174,1.174,0,0,1-58.091-.167v-3.5a1.174,1.174,0,0,1,1.181-1.167Zm0,0" transform="translate(1125 797.609)"/></g></svg>