<svg xmlns="http://www.w3.org/2000/svg" xmlns:xlink="http://www.w3.org/1999/xlink" width="37.278" height="42" viewBox="0 0 37.278 42"><defs><style>.a{fill:none;}.b{clip-path:url(#a);}.c{fill:#4a5cd5;}</style><clipPath id="a"><rect class="a" width="37.278" height="42"/></clipPath></defs><g transform="translate(22 -27)"><g transform="translate(-22 27)"><g class="b" transform="translate(0 0)"><path class="c" d="M-20.723,27.72a1.4,1.4,0,0,0-1.4,1.4V68.228a1.4,1.4,0,0,0,.409.988,1.4,1.4,0,0,0,.988.409H13.732a1.4,1.4,0,0,0,1.4-1.4V29.117a1.4,1.4,0,0,0-1.4-1.4ZM13.848,66.249a1.4,1.4,0,0,1-1.4,1.4H-19.443a1.4,1.4,0,0,1-.988-.409,1.4,1.4,0,0,1-.409-.988V31a1.4,1.4,0,0,1,1.4-1.4h1.117a4.906,4.906,0,0,0,1.4,0v-.419a1.488,1.488,0,0,1,.722-.21c.4,0,.722,0,.722.21s-.209.21-.466.21h-.466a4.924,4.924,0,0,0,1.4,0H7.7a4.923,4.923,0,0,0,1.4,0H8.633c-.256,0-.466,0-.466-.21s.326-.21.722-.21.722,0,.722.21v.3a4.906,4.906,0,0,0,1.4,0h1.4a1.4,1.4,0,0,1,1.4,1.4Zm0,0" transform="translate(22.113 -27.679)"/></g></g><path class="c" d="M21.853,79.329v.163H23.6v.559H21.853v.629h-.559v-.629H19.548v-.582h1.746v-.14H18.431V84.1h.4V87.64h-.4v7.38h.4v3.538h-.4v7.427h.4v3.538h-.4v5.75H34.495V79.329Zm5.541,15.807h3.748v1.071H27.394Zm5.1,6.449H29.815V96.72h1.816v-2.1H29.815v-1.49h2.654Zm0,0" transform="translate(-38.133 -49.355)"/><path class="c" d="M325.736,87.64V84.1h.4V79.329h-3.166v.163h1.746v.559h-1.746v.629h-.535v-.629h-1.746v-.582h1.746v-.14H310.068v35.945h16.063v-5.7h-.4v-3.539h.4V98.605h-.4V95.02h.4V87.64Zm-11.012,13.968H312V93.134h2.654v1.49h-1.816v2.1h1.816Zm2.328-5.378H313.4V95.136h3.771Zm0,0" transform="translate(-313.194 -49.355)"/></g></svg>