<svg xmlns="http://www.w3.org/2000/svg" xmlns:xlink="http://www.w3.org/1999/xlink" width="56.305" height="42" viewBox="0 0 56.305 42"><defs><style>.a,.e{fill:none;}.b{clip-path:url(#a);}.c{fill:#4a5cd5;}.d{fill:#fff;}.f,.g{stroke:none;}.g{fill:#4a5cd5;}</style><clipPath id="a"><rect class="a" width="56.305" height="42"/></clipPath></defs><g transform="translate(-265 -586.493)"><g transform="translate(265 586.493)"><g class="b"><path class="c" d="M89.733-3.151a3.643,3.643,0,0,0-3.357-2.455H47.84a3.744,3.744,0,0,0-3.514,2.611L39.387,17.1H94.61ZM38.88,20.589V32.822a3.517,3.517,0,0,0,3.514,3.494H91.665a3.514,3.514,0,0,0,3.514-3.491V20.6H38.88Zm49.271,8.744H81.119V25.842h7.031Zm0,0" transform="translate(-38.886 5.633)"/></g></g><g transform="translate(-546.695 -178.507)"><path class="d" d="M10.5,0H21a0,0,0,0,1,0,0V21a0,0,0,0,1,0,0H10.5A10.5,10.5,0,0,1,0,10.5v0A10.5,10.5,0,0,1,10.5,0Z" transform="translate(847 786)"/><g transform="translate(-765.534 731.466)"><g class="e" transform="translate(1615 57)"><path class="f" d="M8.165,0A8.165,8.165,0,1,1,0,8.165,8.165,8.165,0,0,1,8.165,0Z"/><path class="g" d="M 8.164851188659668 2.000000953674316 C 4.765541076660156 2.000000953674316 2.000000953674316 4.765541076660156 2.000000953674316 8.164851188659668 C 2.000000953674316 11.56416130065918 4.765541076660156 14.32970142364502 8.164851188659668 14.32970142364502 C 11.56416130065918 14.32970142364502 14.32970142364502 11.56416130065918 14.32970142364502 8.164851188659668 C 14.32970142364502 4.765541076660156 11.56416130065918 2.000000953674316 8.164851188659668 2.000000953674316 M 8.164851188659668 1.9073486328125e-06 C 12.67417144775391 1.9073486328125e-06 16.3297004699707 3.65553092956543 16.3297004699707 8.164851188659668 C 16.3297004699707 12.67417144775391 12.67417144775391 16.3297004699707 8.164851188659668 16.3297004699707 C 3.65553092956543 16.3297004699707 1.9073486328125e-06 12.67417144775391 1.9073486328125e-06 8.164851188659668 C 1.9073486328125e-06 3.65553092956543 3.65553092956543 1.9073486328125e-06 8.164851188659668 1.9073486328125e-06 Z"/></g><path class="c" d="M1660.934,104.42l1.486-1.486,3.261,3.261-1.486,1.486Z" transform="translate(-32.147 -32.147)"/></g></g></g></svg>