<svg xmlns="http://www.w3.org/2000/svg" xmlns:xlink="http://www.w3.org/1999/xlink" width="41.932" height="42" viewBox="0 0 41.932 42"><defs><style>.a{fill:none;}.b{fill:#4a5cd5;}.c{clip-path:url(#a);}</style><clipPath id="a"><rect class="a" width="41.932" height="42"/></clipPath></defs><g transform="translate(27 -63)"><path class="b" d="M340.487,421.8a9.209,9.209,0,1,0,9.209,9.209,9.212,9.212,0,0,0-9.209-9.209Zm5.688,10.473a1.53,1.53,0,0,1-1.084.451h-4.6a1.54,1.54,0,0,1-1.535-1.535v-5.06a1.535,1.535,0,0,1,3.07,0v3.525h3.07a1.533,1.533,0,0,1,1.084,2.619Zm0,0" transform="translate(-334.788 -335.276)"/><g transform="translate(-27 63)"><g class="c" transform="translate(0 0)"><path class="b" d="M122.8,74.161A10.841,10.841,0,1,0,133.643,63.32,10.841,10.841,0,0,0,122.8,74.161Zm0,0" transform="translate(-113.369 -63.3)"/><path class="b" d="M-6.762,425.035a12.768,12.768,0,0,0,1.813,3.038H-25.573a1.545,1.545,0,0,1-1.547-1.486v-.181A20.141,20.141,0,0,1-18.208,410.1a3.115,3.115,0,0,1,3.5.02,13.827,13.827,0,0,0,2.443,1.335,13.812,13.812,0,0,0,5.425,1.1,13.427,13.427,0,0,0,1.5-.081,12.789,12.789,0,0,0-1.421,2.524,12.949,12.949,0,0,0,0,10.04Zm0,0" transform="translate(27.112 -387.745)"/></g></g></g></svg>