<svg xmlns="http://www.w3.org/2000/svg" xmlns:xlink="http://www.w3.org/1999/xlink" width="39.155" height="42" viewBox="0 0 39.155 42"><defs><style>.a{fill:none;}.b{clip-path:url(#a);}.c{fill:#4a5cd5;}</style><clipPath id="a"><rect class="a" width="39.155" height="42"/></clipPath></defs><g transform="translate(53 -12)"><g transform="translate(-53 12)"><g class="b" transform="translate(0 0)"><path class="c" d="M-16.648,88.856a2.8,2.8,0,0,1,2.789,2.633,2.8,2.8,0,0,1-2.462,2.941l-.327.02H-50.206a2.8,2.8,0,0,1-2.789-2.633,2.8,2.8,0,0,1,2.461-2.941l.327-.02Zm0,13.983a2.8,2.8,0,0,1,2.789,2.633,2.8,2.8,0,0,1-2.462,2.941l-.327.02H-50.206a2.8,2.8,0,0,1-2.789-2.633,2.8,2.8,0,0,1,2.461-2.941l.327-.02Zm0,13.983a2.8,2.8,0,0,1,2.789,2.633,2.8,2.8,0,0,1-2.462,2.941l-.327.02H-50.206a2.8,2.8,0,0,1-2.789-2.633,2.8,2.8,0,0,1,2.461-2.941l.327-.02Zm0,0" transform="translate(53 -84.658)"/><path class="c" d="M71.716,12.055a2.8,2.8,0,0,1,2.777,2.469l.02.327v8.39a2.8,2.8,0,0,1-5.574.327l-.019-.327v-8.39a2.8,2.8,0,0,1,2.8-2.8ZM52.14,26.038a2.8,2.8,0,0,1,2.777,2.469l.02.327v8.39a2.8,2.8,0,0,1-5.574.327l-.02-.327v-8.39a2.8,2.8,0,0,1,2.8-2.8ZM71.716,40.02a2.8,2.8,0,0,1,2.777,2.469l.02.327v8.39a2.8,2.8,0,0,1-5.574.327l-.019-.327v-8.39a2.8,2.8,0,0,1,2.8-2.8Zm0,0" transform="translate(-43.754 -12.052)"/></g></g></g></svg>