<svg xmlns="http://www.w3.org/2000/svg" xmlns:xlink="http://www.w3.org/1999/xlink" width="47.73" height="42" viewBox="0 0 47.73 42"><defs><style>.a{fill:none;}.b{clip-path:url(#a);}.c{fill:#4a5cd5;}</style><clipPath id="a"><rect class="a" width="47.73" height="42"/></clipPath></defs><g transform="translate(100 -38)"><g transform="translate(-100 38)"><g class="b" transform="translate(0)"><path class="c" d="M-55.76,121.946H-69.589a1.677,1.677,0,0,0-1.628,1.061,5.365,5.365,0,0,1-5.216,3.417,5.365,5.365,0,0,1-5.216-3.417,1.679,1.679,0,0,0-1.628-1.061h-13.5a3.143,3.143,0,0,0-3.342,2.9v8.56a3.142,3.142,0,0,0,3.342,2.9H-55.76a3.142,3.142,0,0,0,3.342-2.9v-8.56a3.144,3.144,0,0,0-3.342-2.9ZM-68.931,98.021v.156c-.234-.1-.234-.125,0-.156-.234-.062,0-.1,0-.156Zm0,0" transform="translate(100.113 -94.358)"/></g></g><path class="c" d="M-3.351,38.715H-30.857A1.828,1.828,0,0,0-32.7,40.5V64.071h7.313a3.66,3.66,0,0,0,3.672,3.634,3.636,3.636,0,0,0,2.593-1.05,3.637,3.637,0,0,0,1.08-2.581H-1.514V40.5a1.807,1.807,0,0,0-.548-1.274,1.806,1.806,0,0,0-1.29-.51Zm-21.578,7.917H-9.272a1.28,1.28,0,0,1,1.337,1.161,1.272,1.272,0,0,1-1.337,1.163H-24.929a1.279,1.279,0,0,1-1.337-1.163,1.271,1.271,0,0,1,1.337-1.161ZM-9.258,57.078H-24.912a1.281,1.281,0,0,1-1.339-1.161,1.273,1.273,0,0,1,1.339-1.163H-9.258a1.282,1.282,0,0,1,1.339,1.163,1.272,1.272,0,0,1-1.339,1.161Zm-29.37-14.732h2.263V64.071h-5.509V45.166a3.056,3.056,0,0,1,3.246-2.82Zm0,0" transform="translate(-54.709 -0.671)"/></g></svg>