<svg xmlns="http://www.w3.org/2000/svg" xmlns:xlink="http://www.w3.org/1999/xlink" width="713" height="222.916" viewBox="0 0 713 222.916"><defs><style>.a{fill:#fff;}.b,.c{stroke:none;}.c{fill:#4a5cd5;}.d{filter:url(#a);}</style><filter id="a" x="0" y="0" width="713" height="222.916" filterUnits="userSpaceOnUse"><feOffset input="SourceAlpha"/><feGaussianBlur stdDeviation="10" result="b"/><feFlood flood-opacity="0.161"/><feComposite operator="in" in2="b"/><feComposite in="SourceGraphic"/></filter></defs><g class="d" transform="matrix(1, 0, 0, 1, 0, 0)"><g class="a" transform="translate(2020 3612)"><path class="b" d="M -1642.763305664062 -3420.083740234375 C -1642.990966796875 -3420.083740234375 -1643.199829101562 -3420.159423828125 -1643.38427734375 -3420.30908203125 L -1671.130126953125 -3442.77685546875 L -1671.4052734375 -3442.999755859375 L -1671.759399414062 -3442.999755859375 L -1985.00048828125 -3442.999755859375 C -1987.205810546875 -3442.999755859375 -1989 -3444.794189453125 -1989 -3447 L -1989 -3576.999755859375 C -1989 -3579.20556640625 -1987.205810546875 -3581 -1985.00048828125 -3581 L -1341.999877929688 -3581 C -1339.794555664062 -3581 -1338.00048828125 -3579.20556640625 -1338.00048828125 -3576.999755859375 L -1338.00048828125 -3447 C -1338.00048828125 -3444.794189453125 -1339.794555664062 -3442.999755859375 -1341.999877929688 -3442.999755859375 L -1638.134765625 -3442.999755859375 L -1639.017944335938 -3442.999755859375 L -1639.127075195312 -3442.123291015625 L -1641.762573242188 -3420.96240234375 C -1641.834594726562 -3420.3857421875 -1642.320556640625 -3420.083740234375 -1642.763305664062 -3420.083740234375 Z"/><path class="c" d="M -1642.754760742188 -3421.0859375 L -1642.755004882812 -3421.086181640625 C -1642.755004882812 -3421.086181640625 -1642.7548828125 -3421.086181640625 -1642.7548828125 -3421.0859375 L -1639.901123046875 -3443.999755859375 L -1341.999877929688 -3443.999755859375 C -1340.345947265625 -3443.999755859375 -1339.00048828125 -3445.345703125 -1339.00048828125 -3447 L -1339.00048828125 -3576.999755859375 C -1339.00048828125 -3578.654052734375 -1340.345947265625 -3580 -1341.999877929688 -3580 L -1985.00048828125 -3580 C -1986.654418945312 -3580 -1988 -3578.654052734375 -1988 -3576.999755859375 L -1988 -3447 C -1988 -3445.345703125 -1986.654418945312 -3443.999755859375 -1985.00048828125 -3443.999755859375 L -1671.051147460938 -3443.999755859375 L -1670.500732421875 -3443.553955078125 L -1642.754760742188 -3421.0859375 M -1642.763305664062 -3419.083740234375 C -1643.194213867188 -3419.083740234375 -1643.633544921875 -3419.223876953125 -1644.013793945312 -3419.531982421875 L -1671.759399414062 -3441.999755859375 L -1985.00048828125 -3441.999755859375 C -1987.761596679688 -3441.999755859375 -1990 -3444.23876953125 -1990 -3447 L -1990 -3576.999755859375 C -1990 -3579.76171875 -1987.761596679688 -3582 -1985.00048828125 -3582 L -1341.999877929688 -3582 C -1339.23876953125 -3582 -1337.00048828125 -3579.76171875 -1337.00048828125 -3576.999755859375 L -1337.00048828125 -3447 C -1337.00048828125 -3444.23876953125 -1339.23876953125 -3441.999755859375 -1341.999877929688 -3441.999755859375 L -1638.134765625 -3441.999755859375 L -1640.770263671875 -3420.8388671875 C -1640.904052734375 -3419.767333984375 -1641.8125 -3419.083740234375 -1642.763305664062 -3419.083740234375 Z"/></g></g></svg>