<svg xmlns="http://www.w3.org/2000/svg" xmlns:xlink="http://www.w3.org/1999/xlink" width="40.363" height="42" viewBox="0 0 40.363 42"><defs><style>.a{fill:none;}.b{clip-path:url(#a);}.c{fill:#4a5cd5;}</style><clipPath id="a"><rect class="a" width="40.363" height="42"/></clipPath></defs><g transform="translate(45.31 -56.08)"><g transform="translate(-45.31 56.08)"><g class="b" transform="translate(0 0)"><path class="c" d="M-24.481,86.284a8.535,8.535,0,0,1-8.535-8.534,8.535,8.535,0,0,1,8.535-8.535,8.535,8.535,0,0,1,8.534,8.535,8.534,8.534,0,0,1-8.534,8.534Zm13.966-15.518a3.879,3.879,0,0,1-3.879-3.879,3.879,3.879,0,0,1,3.879-3.879,3.879,3.879,0,0,1,3.879,3.879,3.879,3.879,0,0,1-3.879,3.879ZM-20.6,63.007a3.1,3.1,0,0,1-3.1-3.1,3.1,3.1,0,0,1,3.1-3.1,3.1,3.1,0,0,1,3.1,3.1,3.1,3.1,0,0,1-3.1,3.1Zm-11.638,0a2.328,2.328,0,0,1-2.328-2.328,2.328,2.328,0,0,1,2.328-2.328,2.328,2.328,0,0,1,2.328,2.328,2.328,2.328,0,0,1-2.328,2.328Zm-9.311,9.311a3.879,3.879,0,0,1-3.879-3.879,3.879,3.879,0,0,1,3.879-3.879,3.879,3.879,0,0,1,3.879,3.879,3.879,3.879,0,0,1-3.879,3.879ZM-40,80.077a2.328,2.328,0,0,1-2.328-2.328A2.328,2.328,0,0,1-40,75.421a2.328,2.328,0,0,1,2.328,2.328A2.328,2.328,0,0,1-40,80.077Zm-1.552,17.07a3.879,3.879,0,0,1-3.879-3.879,3.879,3.879,0,0,1,3.879-3.879,3.879,3.879,0,0,1,3.879,3.879,3.879,3.879,0,0,1-3.879,3.879Zm10.862-3.1a2.328,2.328,0,0,1-2.328-2.328,2.328,2.328,0,0,1,2.328-2.328,2.328,2.328,0,0,1,2.328,2.328,2.328,2.328,0,0,1-2.328,2.328Zm15.518-1.552A2.328,2.328,0,0,1-17.5,90.163a2.328,2.328,0,0,1,2.328-2.328,2.328,2.328,0,0,1,2.328,2.328,2.328,2.328,0,0,1-2.328,2.328ZM-8.188,98.7a3.1,3.1,0,0,1-3.1-3.1,3.1,3.1,0,0,1,3.1-3.1,3.1,3.1,0,0,1,3.1,3.1,3.1,3.1,0,0,1-3.1,3.1Zm0,0" transform="translate(45.423 -56.756)"/></g></g></g></svg>