<svg xmlns="http://www.w3.org/2000/svg" width="42" height="42" viewBox="0 0 42 42"><defs><style>.a{fill:#4a5cd5;}</style></defs><g transform="translate(104 13)"><g transform="translate(-104 -13)"><path class="a" d="M-67.7-13H-98.3A5.715,5.715,0,0,0-104-7.3V23.3A5.713,5.713,0,0,0-98.3,29H-67.7A5.766,5.766,0,0,0-62,23.3V-7.3A5.715,5.715,0,0,0-67.7-13Zm-9.768,37.443H-88.127a.525.525,0,0,1-.488-.488.525.525,0,0,1,.488-.491h10.663a.525.525,0,0,1,.488.491.47.47,0,0,1-.488.488Zm-.41-1.874h-9.765a.94.94,0,0,1-.7-.275.94.94,0,0,1-.275-.7.94.94,0,0,1,.977-.977h9.765a.941.941,0,0,1,.979.977.99.99,0,0,1-.979.977Zm6.92-15.627h-5.786l.005.163V18.012a1.86,1.86,0,0,1-1.79,1.79h-8.137a1.806,1.806,0,0,1-1.793-1.79V7.1c0-.055.005-.11.008-.163h-5.46a1.316,1.316,0,0,1-.977-2.279L-83.407-6.815a1.33,1.33,0,0,1,.977-.427,1.331,1.331,0,0,1,.977.427L-69.98,4.666a1.323,1.323,0,0,1-.977,2.279Zm0,0" transform="translate(104 13)"/></g></g></svg>